<svg xmlns="http://www.w3.org/2000/svg" width="58.41" height="65" viewBox="0 0 58.41 65">
  <g id="그룹_10" data-name="그룹 10" transform="translate(-270.249 -478.016)">
    <path id="패스_88" data-name="패스 88" d="M318.914,510.222a19.484,19.484,0,0,0-3.132-2.15,23.9,23.9,0,0,0-2.157-1.063l-4.857,2.947-21.525,13.059-8.629,5.13V542.7H293.6c7.061,0,12.607-.4,16.844-1.412a18.78,18.78,0,0,0,10.388-6.254,18.577,18.577,0,0,0,4.035-11.8A16.86,16.86,0,0,0,318.914,510.222Zm-9.783,25.82c-2.826,2.823-7.061,3.631-12.709,3.631h-9.178V524.019l22.914-13.9c2.12,2.766,3.209,7.93,3.209,12.815C313.366,528.779,311.954,533.116,309.131,536.042Z" transform="translate(0.091 0.317)"/>
    <g id="그룹_9" data-name="그룹 9" transform="translate(270.249 492.162)">
      <path id="패스_90" data-name="패스 90" d="M326.867,492.027Z" transform="translate(-269.63 -492.009)"/>
      <path id="패스_91" data-name="패스 91" d="M327.934,493.4h0Z" transform="translate(-269.618 -491.994)"/>
      <path id="패스_92" data-name="패스 92" d="M328.039,492.034a1.282,1.282,0,0,0-.782.093l-.706.309c-4.234,1.965-22.107,13.364-36.915,22.948-.409.265-19.578,12.517-19.386,12.833S290,516.908,290.418,516.666c15.251-8.778,33.493-19.466,37.207-22.472.206-.168.491-.405.694-.575a.92.92,0,0,0,.326-.58C328.733,492.345,328.379,492.107,328.039,492.034Zm-5.668,5.045c-2.734,1.673-3.643,1.912-3.851,1.574s.369-1.124,3.1-2.8,3.844-1.929,4.051-1.591C325.684,494.284,326.319,494.663,322.371,497.079Z" transform="translate(-270.249 -492.009)"/>
    </g>
    <path id="패스_93" data-name="패스 93" d="M320.677,489.613c-1.908-9.055-11.659-11.6-29.2-11.6H278.614V517.6l8.629-5.326,1.02-.619,4.212-2.555,16.77-10.176,11.735-7.12A16.154,16.154,0,0,0,320.677,489.613Zm-11.048,8.044-20.577,12.51h0l-1.809,1.111V480.739c1.21-.1,3.328-.1,4.741-.1,5.346,0,8.976.5,11.194,1.715a10.8,10.8,0,0,1,4.943,4.545c1.109,2.017,1.614,3.183,1.614,6.915C309.736,494.691,309.7,496.863,309.628,497.657Z" transform="translate(0.091)"/>
  </g>
</svg>
