<svg xmlns="http://www.w3.org/2000/svg" width="119.458" height="37.876" viewBox="0 0 119.458 37.876">
  <g id="그룹_2" data-name="그룹 2" transform="translate(-50.351 -488.392)">
    <path id="패스_48" data-name="패스 48" d="M50.775,488.392H55.8c6.756,0,10.152,1.94,10.152,5.855a4.8,4.8,0,0,1-1.767,3.88,10.477,10.477,0,0,1-5.232,1.974c2.806.209,4.885.9,6.271,2.079a5.793,5.793,0,0,1,2.044,4.47,6.383,6.383,0,0,1-1.385,4.053,6.455,6.455,0,0,1-3.569,2.148,26.044,26.044,0,0,1-5.786.485H50.775Zm3.568,11.364h.936c2.633,0,4.4-.416,5.371-1.247s1.42-2.148,1.42-4.019a6.345,6.345,0,0,0-.555-2.98,3.855,3.855,0,0,0-1.7-1.628,8.584,8.584,0,0,0-3.845-.589c-.485,0-1.213,0-1.628.035Zm0,12.542H57.5c1.94,0,3.4-.277,4.366-1.247a6.235,6.235,0,0,0,1.455-4.5,5.766,5.766,0,0,0-1.628-4.5c-1.109-.97-3.014-1.454-5.786-1.454-.451,0-1.143.034-1.559.034Z" transform="translate(-0.071 0)" fill="#1a1818"/>
    <path id="패스_49" data-name="패스 49" d="M96.584,512.506v.832H79.226V488.392h3.6v24.114Z" transform="translate(-4.862 0)" fill="#1a1818"/>
    <path id="패스_50" data-name="패스 50" d="M119.219,504.191h-9.181l-3.5,9.146h-1.316l10.325-24.945h.728l10.6,24.945h-3.915c-1.316-3.222-1.87-4.573-1.87-4.573Zm-.312-.832L114.541,492.9,110.28,503.36Z" transform="translate(-9.239 0)" fill="#1a1818"/>
    <path id="패스_51" data-name="패스 51" d="M158.249,488.392v24.945h-.659l-17.5-22.971v22.348h-.8V488.392h3.742l14.17,18.952V488.392Z" transform="translate(-14.976 0)" fill="#1a1818"/>
    <path id="패스_52" data-name="패스 52" d="M189.962,509.7a10.383,10.383,0,0,1-8.108,3.638,11.652,11.652,0,0,1-8.523-3.292,11.922,11.922,0,0,1-3.292-8.73,14.933,14.933,0,0,1,1.525-6.722,10.049,10.049,0,0,1,4.261-4.677,12.141,12.141,0,0,1,5.994-1.524,10.779,10.779,0,0,1,4.885,1.109,10.266,10.266,0,0,1,3.223,2.391v.1l-.694.658a6.089,6.089,0,0,0-1.351-1.455,8.829,8.829,0,0,0-5.544-1.905,7.1,7.1,0,0,0-6.028,3.084c-1.489,2.044-2.217,4.954-2.217,8.765,0,3.6.8,6.375,2.425,8.315a7.663,7.663,0,0,0,6.063,2.876,9.394,9.394,0,0,0,3.95-.936,6.556,6.556,0,0,0,2.737-2.425Z" transform="translate(-20.153 0)" fill="#1a1818"/>
    <g id="그룹_1" data-name="그룹 1" transform="translate(50.351 520.098)">
      <path id="패스_53" data-name="패스 53" d="M50.351,530.869l.249-.283a1.892,1.892,0,0,0,1.421.654c.728,0,1.179-.384,1.179-.943,0-.593-.384-.782-.869-1l-.734-.323a1.362,1.362,0,0,1-1-1.226,1.31,1.31,0,0,1,1.455-1.233,1.877,1.877,0,0,1,1.388.593l-.23.263a1.576,1.576,0,0,0-1.158-.491c-.626,0-1.045.33-1.045.835,0,.56.478.768.836.923l.734.324c.559.249,1.03.559,1.03,1.306a1.416,1.416,0,0,1-1.59,1.334A2.183,2.183,0,0,1,50.351,530.869Z" transform="translate(-50.351 -526.517)" fill="#1a1818"/>
      <path id="패스_54" data-name="패스 54" d="M62.3,526.623h.4v2.128h2.553v-2.128h.4v4.911h-.4V529.1H62.7v2.432h-.4Z" transform="translate(-52.363 -526.535)" fill="#1a1818"/>
      <path id="패스_55" data-name="패스 55" d="M74.481,529.043c0-1.556.848-2.526,2.034-2.526s2.041.97,2.041,2.526-.842,2.56-2.041,2.56S74.481,530.606,74.481,529.043Zm3.657,0c0-1.334-.646-2.162-1.623-2.162s-1.61.828-1.61,2.162.64,2.2,1.61,2.2S78.138,530.377,78.138,529.043Z" transform="translate(-54.414 -526.517)" fill="#1a1818"/>
      <path id="패스_56" data-name="패스 56" d="M87.539,526.623h2.714v.343H87.942v1.792h1.947v.344H87.942v2.082h2.385v.35H87.539Z" transform="translate(-56.613 -526.535)" fill="#1a1818"/>
      <path id="패스_57" data-name="패스 57" d="M107.586,526.623h1.354c.99,0,1.637.363,1.637,1.193a1.058,1.058,0,0,1-.748,1.071v.033a1.137,1.137,0,0,1,1.044,1.178c0,.951-.728,1.435-1.832,1.435h-1.455Zm1.226,2.142c.971,0,1.361-.344,1.361-.9,0-.667-.452-.909-1.321-.909h-.862v1.812Zm.136,2.432c.95,0,1.529-.337,1.529-1.1,0-.687-.552-1.01-1.529-1.01h-.957V531.2Z" transform="translate(-59.988 -526.535)" fill="#1a1818"/>
      <path id="패스_58" data-name="패스 58" d="M119.218,529.043c0-1.556.849-2.526,2.035-2.526s2.041.97,2.041,2.526-.842,2.56-2.041,2.56S119.218,530.606,119.218,529.043Zm3.658,0c0-1.334-.647-2.162-1.623-2.162s-1.61.828-1.61,2.162.64,2.2,1.61,2.2S122.876,530.377,122.876,529.043Z" transform="translate(-61.947 -526.517)" fill="#1a1818"/>
      <path id="패스_59" data-name="패스 59" d="M132.252,529.614v-2.991h.4v2.971c0,1.28.593,1.664,1.273,1.664s1.3-.384,1.3-1.664v-2.971h.384v2.991c0,1.549-.8,2.008-1.685,2.008S132.252,531.163,132.252,529.614Z" transform="translate(-64.141 -526.535)" fill="#1a1818"/>
      <path id="패스_60" data-name="패스 60" d="M145.734,526.966h-1.543v-.343h3.5v.343h-1.549v4.567h-.411Z" transform="translate(-66.151 -526.535)" fill="#1a1818"/>
      <path id="패스_61" data-name="패스 61" d="M156.325,526.623h.4v4.911h-.4Z" transform="translate(-68.195 -526.535)" fill="#1a1818"/>
      <path id="패스_62" data-name="패스 62" d="M166.785,531.59c-1.078-.108-1.825-1.078-1.825-2.546,0-1.556.849-2.526,2.034-2.526s2.042.97,2.042,2.526c0,1.455-.734,2.425-1.805,2.546a1.3,1.3,0,0,0,1.26.741,1.542,1.542,0,0,0,.5-.067l.087.337a2.065,2.065,0,0,1-.626.087A1.706,1.706,0,0,1,166.785,531.59Zm1.832-2.546c0-1.334-.646-2.162-1.623-2.162s-1.61.828-1.61,2.162.64,2.216,1.61,2.216S168.617,530.391,168.617,529.043Z" transform="translate(-69.649 -526.517)" fill="#1a1818"/>
      <path id="패스_63" data-name="패스 63" d="M177.993,529.614v-2.991h.4v2.971c0,1.28.593,1.664,1.273,1.664s1.3-.384,1.3-1.664v-2.971h.383v2.991c0,1.549-.8,2.008-1.684,2.008S177.993,531.163,177.993,529.614Z" transform="translate(-71.843 -526.535)" fill="#1a1818"/>
      <path id="패스_64" data-name="패스 64" d="M190.532,526.623h2.715v.343h-2.311v1.792h1.947v.344h-1.947v2.082h2.385v.35h-2.789Z" transform="translate(-73.954 -526.535)" fill="#1a1818"/>
    </g>
  </g>
</svg>
