<svg xmlns="http://www.w3.org/2000/svg" width="52.002" height="52.001" viewBox="0 0 52.002 52.001">
  <g id="F_-_558_Bus_car_traffic_transport_vehicles" data-name="F - 558, Bus, car, traffic, transport, vehicles" transform="translate(-582.937 200.962)">
    <g id="그룹_70" data-name="그룹 70" transform="translate(582.937 -200.962)">
      <path id="패스_119" data-name="패스 119" d="M628.373-159.5v-22.027h5.442a1.144,1.144,0,0,0,1.124-1.123v-8.639a1.144,1.144,0,0,0-1.124-1.123h-5.442v-4.664a3.87,3.87,0,0,0-3.887-3.887h-31.1a3.87,3.87,0,0,0-3.887,3.887v4.751H584.06a1.143,1.143,0,0,0-1.123,1.123v8.639a1.143,1.143,0,0,0,1.123,1.123H589.5v22.027a3.871,3.871,0,0,0,3.887,3.887h.432v4.319h-9.675a1.143,1.143,0,0,0-1.123,1.123,1.144,1.144,0,0,0,1.123,1.123h49.669a1.144,1.144,0,0,0,1.124-1.123,1.143,1.143,0,0,0-1.124-1.123h-8.638v-4.406A3.98,3.98,0,0,0,628.373-159.5Zm4.319-30.665v6.478h-4.319v-6.478Zm-41.031-6.91a1.733,1.733,0,0,1,1.728-1.728h31.1a1.732,1.732,0,0,1,1.728,1.728v26.346H591.661Zm-6.478,13.388v-6.478H589.5v6.478Zm6.478,24.187v-9.07h34.553v9.07a1.733,1.733,0,0,1-1.728,1.728h-31.1A1.733,1.733,0,0,1,591.661-159.5Zm25.915,3.887v4.319H601.422v-4.319Zm-21.6,4.319v-4.319h3.283v4.319Zm23.755,0v-4.319h3.282v4.319Z" transform="translate(-582.937 200.962)"/>
      <path id="패스_120" data-name="패스 120" d="M602.133-157.306a3.281,3.281,0,0,0-3.283-3.283,3.209,3.209,0,0,0-3.2,3.283,3.281,3.281,0,0,0,3.282,3.282A3.262,3.262,0,0,0,602.133-157.306Zm-4.319,0a1.143,1.143,0,0,1,1.123-1.123,1.143,1.143,0,0,1,1.123,1.123,1.143,1.143,0,0,1-1.123,1.123A1.207,1.207,0,0,1,597.814-157.306Z" transform="translate(-584.771 195.141)"/>
      <path id="패스_121" data-name="패스 121" d="M626.694-154.125a3.28,3.28,0,0,0,3.282-3.282,3.28,3.28,0,0,0-3.282-3.282,3.28,3.28,0,0,0-3.282,3.282A3.28,3.28,0,0,0,626.694-154.125Zm0-4.318a1.143,1.143,0,0,1,1.124,1.123,1.144,1.144,0,0,1-1.124,1.123,1.144,1.144,0,0,1-1.123-1.123A1.143,1.143,0,0,1,626.694-158.443Z" transform="translate(-588.773 195.155)"/>
      <path id="패스_122" data-name="패스 122" d="M604.348-191.247h15.117a1.144,1.144,0,0,0,1.123-1.123,1.144,1.144,0,0,0-1.123-1.124H604.348a1.144,1.144,0,0,0-1.123,1.124A1.144,1.144,0,0,0,604.348-191.247Z" transform="translate(-585.862 199.885)"/>
    </g>
  </g>
</svg>
