<svg xmlns="http://www.w3.org/2000/svg" width="871.8" height="161.732" viewBox="0 0 871.8 161.732">
  <g id="그룹_68" data-name="그룹 68" transform="translate(-507.455 -2399)">
    <g id="그룹_33" data-name="그룹 33" transform="translate(553 2439)">
      <path id="패스_44" data-name="패스 44" d="M50.775,488.392H63.337c16.893,0,25.384,4.851,25.384,14.641a12.01,12.01,0,0,1-4.419,9.7c-2.859,2.425-7.278,4.072-13.082,4.937,7.016.522,12.215,2.254,15.681,5.2a14.485,14.485,0,0,1,5.111,11.177,15.961,15.961,0,0,1-3.464,10.135,16.14,16.14,0,0,1-8.925,5.371,65.112,65.112,0,0,1-14.469,1.212H50.775ZM59.7,516.808h2.339c6.584,0,11-1.04,13.429-3.119s3.552-5.371,3.552-10.05c0-3.2-.435-5.716-1.387-7.451a9.639,9.639,0,0,0-4.246-4.072c-1.9-1.04-5.024-1.472-9.615-1.472-1.212,0-3.032,0-4.072.087Zm0,31.36h7.883c4.851,0,8.49-.692,10.917-3.117,2.425-2.514,3.637-6.238,3.637-11.262,0-5.113-1.385-8.838-4.072-11.264-2.772-2.425-7.536-3.637-14.467-3.637-1.127,0-2.859.085-3.9.085Z" transform="translate(-49.893 -488.392)" fill="#1a1818"/>
      <path id="패스_45" data-name="패스 45" d="M122.63,548.688v2.079h-43.4V488.392h9.01v60.3Z" transform="translate(-19.182 -488.392)" fill="#1a1818"/>
      <path id="패스_46" data-name="패스 46" d="M140.221,527.9H117.264l-8.75,22.87h-3.292l25.816-62.375h1.82l26.509,62.375h-9.79c-3.292-8.056-4.677-11.435-4.677-11.435Zm-.78-2.08-10.917-26.164-10.655,26.164Z" transform="translate(8.88 -488.392)" fill="#1a1818"/>
      <path id="패스_47" data-name="패스 47" d="M186.686,488.392v62.375h-1.647l-43.748-57.439V549.21H139.3V488.392h9.358l35.432,47.389V488.392Z" transform="translate(45.662 -488.392)" fill="#1a1818"/>
      <path id="패스_48" data-name="패스 48" d="M219.855,541.672a25.961,25.961,0,0,1-20.273,9.1c-8.663,0-15.766-2.772-21.312-8.23-5.457-5.544-8.231-12.822-8.231-21.83a37.339,37.339,0,0,1,3.814-16.808A25.127,25.127,0,0,1,184.509,492.2a30.358,30.358,0,0,1,14.989-3.812,26.952,26.952,0,0,1,12.215,2.772,25.669,25.669,0,0,1,8.058,5.979v.26l-1.734,1.645a15.226,15.226,0,0,0-3.377-3.639,22.076,22.076,0,0,0-13.864-4.764,17.742,17.742,0,0,0-15.074,7.711c-3.724,5.111-5.544,12.387-5.544,21.917,0,9.01,1.992,15.941,6.064,20.793a19.161,19.161,0,0,0,15.161,7.191,23.49,23.49,0,0,0,9.877-2.339,16.392,16.392,0,0,0,6.843-6.064Z" transform="translate(78.848 -488.392)" fill="#1a1818"/>
      <g id="그룹_32" data-name="그룹 32" transform="translate(0 79.279)">
        <path id="패스_49" data-name="패스 49" d="M50.351,537.4l.622-.707a4.731,4.731,0,0,0,3.554,1.634c1.82,0,2.949-.961,2.949-2.358,0-1.483-.961-1.955-2.173-2.493l-1.836-.809c-1.094-.489-2.493-1.262-2.493-3.065,0-1.819,1.551-3.084,3.639-3.084A4.693,4.693,0,0,1,58.082,528l-.574.657a3.942,3.942,0,0,0-2.9-1.229c-1.566,0-2.612.826-2.612,2.088,0,1.4,1.2,1.922,2.09,2.308l1.836.809c1.4.624,2.576,1.4,2.576,3.267,0,1.888-1.566,3.336-3.976,3.336A5.457,5.457,0,0,1,50.351,537.4Z" transform="translate(-50.351 -526.517)" fill="#1a1818"/>
        <path id="패스_50" data-name="패스 50" d="M62.3,526.623h1.011v5.321h6.384v-5.321H70.7V538.9H69.693v-6.08H63.309v6.08H62.3Z" transform="translate(-37.455 -526.403)" fill="#1a1818"/>
        <path id="패스_51" data-name="패스 51" d="M74.481,532.834c0-3.891,2.121-6.317,5.086-6.317,3,0,5.1,2.427,5.1,6.317,0,3.907-2.1,6.4-5.1,6.4C76.6,539.235,74.481,536.742,74.481,532.834Zm9.145,0c0-3.335-1.616-5.406-4.059-5.406-2.425,0-4.026,2.071-4.026,5.406s1.6,5.492,4.026,5.492C82.011,538.326,83.626,536.17,83.626,532.834Z" transform="translate(-24.304 -526.517)" fill="#1a1818"/>
        <path id="패스_52" data-name="패스 52" d="M87.539,526.623h6.787v.859H88.548v4.481h4.868v.859H88.548v5.2h5.964v.876H87.539Z" transform="translate(-10.208 -526.403)" fill="#1a1818"/>
        <path id="패스_53" data-name="패스 53" d="M107.586,526.623h3.385c2.477,0,4.094.909,4.094,2.982a2.647,2.647,0,0,1-1.869,2.678v.083a2.842,2.842,0,0,1,2.61,2.947c0,2.377-1.82,3.589-4.581,3.589h-3.639Zm3.065,5.357c2.427,0,3.4-.861,3.4-2.258,0-1.668-1.129-2.273-3.3-2.273H108.6v4.531Zm.339,6.08c2.375,0,3.822-.842,3.822-2.747,0-1.718-1.381-2.527-3.822-2.527H108.6v5.274Z" transform="translate(11.432 -526.403)" fill="#1a1818"/>
        <path id="패스_54" data-name="패스 54" d="M119.218,532.834c0-3.891,2.123-6.317,5.088-6.317,3,0,5.1,2.427,5.1,6.317,0,3.907-2.106,6.4-5.1,6.4C121.341,539.235,119.218,536.742,119.218,532.834Zm9.148,0c0-3.335-1.618-5.406-4.059-5.406s-4.026,2.071-4.026,5.406,1.6,5.492,4.026,5.492S128.366,536.17,128.366,532.834Z" transform="translate(23.988 -526.517)" fill="#1a1818"/>
        <path id="패스_55" data-name="패스 55" d="M132.252,534.1v-7.478h1.009v7.428c0,3.2,1.483,4.161,3.184,4.161,1.736,0,3.252-.961,3.252-4.161v-7.428h.961V534.1c0,3.874-2,5.02-4.213,5.02S132.252,537.975,132.252,534.1Z" transform="translate(38.057 -526.403)" fill="#1a1818"/>
        <path id="패스_56" data-name="패스 56" d="M148.048,527.482h-3.857v-.859h8.759v.859h-3.874V538.9h-1.027Z" transform="translate(50.945 -526.403)" fill="#1a1818"/>
        <path id="패스_57" data-name="패스 57" d="M156.325,526.623h1.011V538.9h-1.011Z" transform="translate(64.043 -526.403)" fill="#1a1818"/>
        <path id="패스_58" data-name="패스 58" d="M169.524,539.2c-2.7-.27-4.564-2.7-4.564-6.367,0-3.891,2.123-6.317,5.086-6.317,3,0,5.105,2.427,5.105,6.317,0,3.639-1.836,6.064-4.514,6.367a3.244,3.244,0,0,0,3.15,1.853,3.86,3.86,0,0,0,1.246-.168l.218.842a5.164,5.164,0,0,1-1.566.219A4.267,4.267,0,0,1,169.524,539.2Zm4.581-6.367c0-3.335-1.616-5.406-4.059-5.406-2.425,0-4.026,2.071-4.026,5.406,0,3.369,1.6,5.542,4.026,5.542C172.49,538.376,174.105,536.2,174.105,532.834Z" transform="translate(73.364 -526.517)" fill="#1a1818"/>
        <path id="패스_59" data-name="패스 59" d="M177.993,534.1v-7.478H179v7.428c0,3.2,1.483,4.161,3.184,4.161,1.736,0,3.252-.961,3.252-4.161v-7.428h.959V534.1c0,3.874-2,5.02-4.211,5.02S177.993,537.975,177.993,534.1Z" transform="translate(87.433 -526.403)" fill="#1a1818"/>
        <path id="패스_60" data-name="패스 60" d="M190.532,526.623h6.789v.859h-5.779v4.481h4.868v.859h-4.868v5.2h5.964v.876h-6.974Z" transform="translate(100.968 -526.403)" fill="#1a1818"/>
      </g>
    </g>
    <g id="그룹_40" data-name="그룹 40" transform="translate(1192.665 2412)">
      <g id="그룹_37" data-name="그룹 37" transform="translate(0 90.344)">
        <path id="패스_67" data-name="패스 67" d="M422.687,516.178h7.846c10.552,0,15.856,2.992,15.856,9.027a7.369,7.369,0,0,1-2.759,5.982c-1.786,1.5-4.545,2.509-8.171,3.043,4.382.321,7.63,1.389,9.8,3.2a8.88,8.88,0,0,1,3.193,6.889,9.764,9.764,0,0,1-2.164,6.25,10.112,10.112,0,0,1-5.575,3.311,41.3,41.3,0,0,1-9.038.747h-8.983ZM428.26,533.7h1.461c4.114,0,6.873-.639,8.388-1.921s2.219-3.311,2.219-6.2a9.659,9.659,0,0,0-.866-4.592,5.986,5.986,0,0,0-2.651-2.511c-1.191-.641-3.139-.909-6.007-.909-.758,0-1.895,0-2.544.053Zm0,19.334h4.925c3.029,0,5.3-.426,6.818-1.923,1.515-1.548,2.273-3.844,2.273-6.942,0-3.152-.865-5.447-2.543-6.942-1.733-1.5-4.709-2.245-9.038-2.245-.7,0-1.786.053-2.436.053Z" transform="translate(-422.135 -516.178)"/>
        <path id="패스_68" data-name="패스 68" d="M470.614,553.351v1.282H443.5V516.178h5.628v37.173Z" transform="translate(-405.992 -516.178)"/>
        <path id="패스_69" data-name="패스 69" d="M484.382,540.534H470.041l-5.465,14.1h-2.058l16.127-38.455h1.136l16.561,38.455h-6.117c-2.056-4.968-2.921-7.051-2.921-7.051Zm-.488-1.282-6.818-16.129-6.657,16.129Z" transform="translate(-391.243 -516.178)"/>
        <path id="패스_70" data-name="패스 70" d="M517.049,516.178v38.455h-1.028l-27.329-35.41v34.448h-1.245V516.178h5.845l22.132,29.215V516.178Z" transform="translate(-371.909 -516.178)"/>
        <path id="패스_71" data-name="패스 71" d="M541.055,549.024a16.305,16.305,0,0,1-12.663,5.609,18.333,18.333,0,0,1-13.313-5.074c-3.409-3.418-5.14-7.9-5.14-13.459a22.77,22.77,0,0,1,2.381-10.36,15.572,15.572,0,0,1,6.657-7.21,19.166,19.166,0,0,1,9.362-2.351,17.009,17.009,0,0,1,7.63,1.71A16,16,0,0,1,541,521.572v.162l-1.083,1.014a9.445,9.445,0,0,0-2.109-2.243,13.905,13.905,0,0,0-8.659-2.938,11.128,11.128,0,0,0-9.416,4.753c-2.328,3.152-3.464,7.639-3.464,13.514,0,5.554,1.245,9.826,3.789,12.818a12.028,12.028,0,0,0,9.469,4.432,14.815,14.815,0,0,0,6.17-1.442,10.21,10.21,0,0,0,4.276-3.738Z" transform="translate(-354.466 -516.178)"/>
        <g id="그룹_36" data-name="그룹 36" transform="translate(0 48.876)">
          <path id="패스_72" data-name="패스 72" d="M422.376,550.413l.391-.437a2.968,2.968,0,0,0,2.219,1.008c1.136,0,1.841-.593,1.841-1.454,0-.914-.6-1.206-1.357-1.538l-1.147-.5a2.109,2.109,0,0,1-1.557-1.891,2.036,2.036,0,0,1,2.273-1.9,2.94,2.94,0,0,1,2.166.914l-.357.4a2.474,2.474,0,0,0-1.809-.758c-.978,0-1.632.508-1.632,1.287,0,.861.748,1.184,1.305,1.422l1.147.5c.874.384,1.61.861,1.61,2.013a2.2,2.2,0,0,1-2.484,2.056A3.437,3.437,0,0,1,422.376,550.413Z" transform="translate(-422.376 -543.705)"/>
          <path id="패스_73" data-name="패스 73" d="M431.117,543.781h.632v3.281h3.986v-3.281h.632v7.569h-.632V547.6h-3.986v3.748h-.632Z" transform="translate(-415.597 -543.646)"/>
          <path id="패스_74" data-name="패스 74" d="M440.03,547.6c0-2.4,1.325-3.894,3.176-3.894,1.873,0,3.189,1.495,3.189,3.894s-1.316,3.945-3.189,3.945C441.355,551.544,440.03,550.008,440.03,547.6Zm5.712,0c0-2.056-1.01-3.333-2.536-3.333s-2.514,1.277-2.514,3.333,1,3.386,2.514,3.386S445.742,549.655,445.742,547.6Z" transform="translate(-408.684 -543.705)"/>
          <path id="패스_75" data-name="패스 75" d="M449.582,543.781h4.24v.529h-3.608v2.763h3.04v.529h-3.04v3.208h3.723v.54h-4.356Z" transform="translate(-401.276 -543.646)"/>
          <path id="패스_76" data-name="패스 76" d="M464.248,543.781h2.117c1.547,0,2.557.561,2.557,1.838a1.633,1.633,0,0,1-1.168,1.651v.052a1.762,1.762,0,0,1,1.63,1.818c0,1.463-1.136,2.211-2.862,2.211h-2.273Zm1.916,3.3c1.515,0,2.125-.531,2.125-1.392,0-1.028-.7-1.4-2.063-1.4H464.88v2.793Zm.211,3.748c1.483,0,2.388-.519,2.388-1.692,0-1.06-.863-1.557-2.388-1.557h-1.5v3.249Z" transform="translate(-389.901 -543.646)"/>
          <path id="패스_77" data-name="패스 77" d="M472.758,547.6c0-2.4,1.326-3.894,3.178-3.894,1.871,0,3.187,1.495,3.187,3.894s-1.316,3.945-3.187,3.945C474.084,551.544,472.758,550.008,472.758,547.6Zm5.714,0c0-2.056-1.01-3.333-2.536-3.333s-2.516,1.277-2.516,3.333,1,3.386,2.516,3.386S478.472,549.655,478.472,547.6Z" transform="translate(-383.301 -543.705)"/>
          <path id="패스_78" data-name="패스 78" d="M482.293,548.392v-4.611h.63v4.579c0,1.973.927,2.566,1.989,2.566,1.085,0,2.031-.593,2.031-2.566v-4.579h.6v4.611c0,2.388-1.252,3.093-2.631,3.093S482.293,550.78,482.293,548.392Z" transform="translate(-375.906 -543.646)"/>
          <path id="패스_79" data-name="패스 79" d="M493.436,544.31h-2.409v-.529H496.5v.529h-2.42v7.04h-.643Z" transform="translate(-369.132 -543.646)"/>
          <path id="패스_80" data-name="패스 80" d="M499.9,543.781h.632v7.569H499.9Z" transform="translate(-362.248 -543.646)"/>
          <path id="패스_81" data-name="패스 81" d="M509.073,551.525c-1.683-.167-2.852-1.662-2.852-3.926,0-2.4,1.326-3.894,3.178-3.894,1.873,0,3.187,1.495,3.187,3.894,0,2.243-1.145,3.739-2.82,3.926a2.032,2.032,0,0,0,1.967,1.142,2.465,2.465,0,0,0,.779-.1l.137.519a3.275,3.275,0,0,1-.978.135A2.664,2.664,0,0,1,509.073,551.525Zm2.862-3.926c0-2.056-1.01-3.333-2.536-3.333s-2.514,1.277-2.514,3.333c0,2.077,1,3.416,2.514,3.416S511.935,549.676,511.935,547.6Z" transform="translate(-357.349 -543.705)"/>
          <path id="패스_82" data-name="패스 82" d="M515.756,548.392v-4.611h.632v4.579c0,1.973.925,2.566,1.989,2.566,1.083,0,2.029-.593,2.029-2.566v-4.579h.6v4.611c0,2.388-1.252,3.093-2.63,3.093S515.756,550.78,515.756,548.392Z" transform="translate(-349.954 -543.646)"/>
          <path id="패스_83" data-name="패스 83" d="M524.929,543.781h4.24v.529h-3.608v2.763h3.04v.529h-3.04v3.208h3.723v.54h-4.356Z" transform="translate(-342.839 -543.646)"/>
        </g>
      </g>
      <g id="그룹_39" data-name="그룹 39" transform="translate(59.775)">
        <path id="패스_84" data-name="패스 84" d="M505.3,486.573a21.145,21.145,0,0,0-3.423-2.321,26.159,26.159,0,0,0-2.358-1.147l-5.309,3.178-23.532,14.091-9.434,5.534v15.7h16.38c7.72,0,13.784-.437,18.414-1.525a20.564,20.564,0,0,0,11.357-6.745,19.873,19.873,0,0,0,4.411-12.731A18.082,18.082,0,0,0,505.3,486.573ZM494.609,514.43c-3.088,3.047-7.718,3.917-13.894,3.917H470.682V501.457l25.05-15c2.317,2.985,3.507,8.555,3.507,13.826C499.238,506.594,497.7,511.273,494.609,514.43Z" transform="translate(-452.003 -451.484)"/>
        <g id="그룹_38" data-name="그룹 38" transform="translate(0 15.261)">
          <path id="패스_85" data-name="패스 85" d="M491.282,473.9Z" transform="translate(-428.709 -473.882)"/>
          <path id="패스_86" data-name="패스 86" d="M491.946,474.743h0Z" transform="translate(-428.194 -473.23)"/>
          <path id="패스_87" data-name="패스 87" d="M519.219,473.918a1.42,1.42,0,0,0-.856.1l-.772.334c-4.627,2.12-24.167,14.418-40.355,24.758-.447.286-21.4,13.5-21.193,13.846s21.586-12.2,22.047-12.465c16.673-9.469,36.616-21,40.677-24.245.225-.179.536-.437.758-.62a.984.984,0,0,0,.355-.627C519.977,474.253,519.59,474,519.219,473.918Zm-6.2,5.444c-2.988,1.8-3.984,2.061-4.21,1.7s.4-1.213,3.391-3.017,4.2-2.081,4.428-1.717C516.643,476.345,517.339,476.755,513.022,479.362Z" transform="translate(-456.041 -473.891)"/>
        </g>
        <path id="패스_88" data-name="패스 88" d="M507.232,477.807c-2.086-9.769-12.745-12.511-31.919-12.511H461.248V508l9.434-5.746,1.115-.668,4.6-2.756,18.335-10.978,12.828-7.683A17.216,17.216,0,0,0,507.232,477.807Zm-12.078,8.679-22.495,13.5h0l-1.978,1.2V468.233c1.323-.108,3.638-.108,5.183-.108,5.843,0,9.814.545,12.239,1.85a11.75,11.75,0,0,1,5.4,4.9c1.214,2.175,1.765,3.434,1.765,7.461C495.27,483.286,495.229,485.63,495.154,486.486Z" transform="translate(-452.003 -465.296)"/>
      </g>
    </g>
    <text id="Main" transform="translate(1128.254 2419)" fill="#1a1818" font-size="16" font-family="NotoSerifKR-Medium, Noto Serif KR" font-weight="500"><tspan x="0" y="0">Main</tspan></text>
    <text id="Logo" transform="translate(507.455 2417)" fill="#1a1818" font-size="16" font-family="NotoSerifKR-Medium, Noto Serif KR" font-weight="500"><tspan x="0" y="0">Logo</tspan></text>
  </g>
</svg>
