<svg xmlns="http://www.w3.org/2000/svg" xmlns:xlink="http://www.w3.org/1999/xlink" width="400" height="300" viewBox="0 0 400 300">
  <defs>
    <clipPath id="clip-path">
      <rect id="사각형_597" data-name="사각형 597" width="400" height="300" transform="translate(17010 1048)" fill="#f1dc28"/>
    </clipPath>
    <linearGradient id="linear-gradient" y1="0.5" x2="1" y2="0.5" gradientUnits="objectBoundingBox">
      <stop offset="0.006" stop-color="#fff2a6"/>
      <stop offset="1" stop-color="#e4b00a"/>
      <stop offset="1" stop-color="#ce8704"/>
    </linearGradient>
    <linearGradient id="linear-gradient-2" y1="0.5" x2="1" y2="0.5" gradientUnits="objectBoundingBox">
      <stop offset="0.006" stop-color="#a89100"/>
      <stop offset="0.077" stop-color="#bca10e"/>
      <stop offset="0.2" stop-color="#d9b823"/>
      <stop offset="0.322" stop-color="#eec832"/>
      <stop offset="0.441" stop-color="#fad23b"/>
      <stop offset="0.556" stop-color="#ffd63f"/>
      <stop offset="0.645" stop-color="#fad23b"/>
      <stop offset="0.744" stop-color="#ecc731"/>
      <stop offset="0.848" stop-color="#d6b521"/>
      <stop offset="0.955" stop-color="#b79d0b"/>
      <stop offset="1" stop-color="#a89100"/>
    </linearGradient>
    <filter id="패스_1444" x="92.506" y="148.5" width="216.986" height="114.609" filterUnits="userSpaceOnUse">
      <feOffset dy="3" input="SourceAlpha"/>
      <feGaussianBlur stdDeviation="1.5" result="blur"/>
      <feFlood flood-opacity="0.161"/>
      <feComposite operator="in" in2="blur"/>
      <feComposite in="SourceGraphic"/>
    </filter>
  </defs>
  <g id="그룹_722" data-name="그룹 722" transform="translate(-17010 -1048)">
    <g id="마스크_그룹_159" data-name="마스크 그룹 159" clip-path="url(#clip-path)">
      <rect id="사각형_596" data-name="사각형 596" width="400" height="300" transform="translate(17010 1048)" fill="#f1dc28"/>
      <g id="그룹_719" data-name="그룹 719" transform="translate(16957.152 975.739)">
        <path id="패스_1289" data-name="패스 1289" d="M524.771,148.54,523.7,135.77l23.986,1.661Z" transform="translate(-301.443 -74.097)" fill="#ffb361"/>
        <path id="패스_1290" data-name="패스 1290" d="M74.045,457.278,79.761,477,63.253,460.485Z" transform="translate(-32.312 -262.018)" fill="#efafab"/>
        <path id="패스_1291" data-name="패스 1291" d="M583.906,52.708l7.228-9.02,7.281,12.465Z" transform="translate(-336.632 -20.275)" fill="#efafab"/>
        <path id="패스_1292" data-name="패스 1292" d="M430.668,45.188l18.717-8.444L435.367,55.419Z" transform="translate(-247.065 -16.216)" fill="#ffb361"/>
        <path id="패스_1293" data-name="패스 1293" d="M202.378,328.764l2.12-3.971,3.68,4.25Z" transform="translate(-113.629 -184.58)" fill="#ffb361"/>
        <path id="패스_1294" data-name="패스 1294" d="M20.769,288.961l2.318-14.938,13.31,7.823Z" transform="translate(-7.48 -154.905)" fill="#e9ff99"/>
        <path id="패스_1295" data-name="패스 1295" d="M556,199.431l-7.8-7.76,12.54-5.621Z" transform="translate(-315.762 -103.485)" fill="#ffb361"/>
        <path id="패스_1296" data-name="패스 1296" d="M923.679,85.738,942.4,77.294,928.378,95.969Z" transform="translate(-535.229 -39.918)" fill="#e9ff99"/>
        <path id="패스_1297" data-name="패스 1297" d="M100.457,401.9l7.227-9.02,7.281,12.465Z" transform="translate(-54.057 -224.378)" fill="#d5cafc"/>
        <path id="패스_1298" data-name="패스 1298" d="M1065.123,96.608l-7.382,6.78h8.271Z" transform="translate(-613.588 -51.207)" fill="#ffce99"/>
        <path id="패스_1299" data-name="패스 1299" d="M35.921,386.823l7.227-9.02,7.281,12.465Z" transform="translate(-16.336 -215.564)" fill="#ffce99"/>
        <path id="패스_1300" data-name="패스 1300" d="M73.116,32.968l9.291-11.925,7.824,13.309Z" transform="translate(-38.076 -7.039)" fill="#e9ff99"/>
        <path id="패스_1301" data-name="패스 1301" d="M296.165,104.817l3.512-9.094,12.376,10.8Z" transform="translate(-168.448 -50.689)" fill="#ffb361"/>
        <path id="패스_1302" data-name="패스 1302" d="M683,63.7,695.94,55.9l2.54,15.228Z" transform="translate(-394.55 -27.411)" fill="#d5cafc"/>
        <path id="패스_1303" data-name="패스 1303" d="M199.621,561.171l12.945-7.807,2.54,15.228Z" transform="translate(-112.019 -318.18)" fill="#d5cafc"/>
        <path id="패스_1304" data-name="패스 1304" d="M74.077,193.023l10.061-17.9-.209,23.35Z" transform="translate(-38.638 -97.098)" fill="#efafab"/>
        <path id="패스_1305" data-name="패스 1305" d="M396.679,222.851l1.606-11.446,12.626,7Z" transform="translate(-227.198 -118.305)" fill="#efafab"/>
        <path id="패스_1306" data-name="패스 1306" d="M1016.337,424.062l2.871-20.332,8.287,21.831Z" transform="translate(-589.388 -230.719)" fill="#efafab"/>
        <path id="패스_1307" data-name="패스 1307" d="M461.22,83.9l1.976-3.7,3.43,3.961Z" transform="translate(-264.922 -41.615)" fill="#ffb361"/>
        <path id="패스_1308" data-name="패스 1308" d="M1064.872,329.369l2.318-14.938,13.31,7.823Z" transform="translate(-617.756 -178.524)" fill="#ffce99"/>
        <path id="패스_1309" data-name="패스 1309" d="M25.883,819.315l-7.8-7.76,12.54-5.621Z" transform="translate(-5.909 -465.806)" fill="#ffb361"/>
        <path id="패스_1310" data-name="패스 1310" d="M266.632,303.769l15.294-6.9-8.813,21.009Z" transform="translate(-151.186 -168.259)" fill="#e9ff99"/>
        <path id="패스_1311" data-name="패스 1311" d="M155.877,759.228l-3.864,9.248,7.51-3.464Z" transform="translate(-84.191 -438.507)" fill="#e9ff99"/>
        <path id="패스_1312" data-name="패스 1312" d="M751.275,144.648,761.93,127.1l-.993,23.33Z" transform="translate(-434.459 -69.026)" fill="#ffb361"/>
        <path id="패스_1313" data-name="패스 1313" d="M764.182,45.753l5.444-10.2,9.45,10.912Z" transform="translate(-442.003 -15.522)" fill="#ffce99"/>
        <path id="패스_1314" data-name="패스 1314" d="M323.807,47.468l9.524-11.739,7.56,13.461Z" transform="translate(-184.605 -15.623)" fill="#e9ff99"/>
        <path id="패스_1315" data-name="패스 1315" d="M65.011,119.209l-2.536-14.9,15.1,3.2Z" transform="translate(-31.857 -55.707)" fill="url(#linear-gradient)"/>
        <path id="패스_1316" data-name="패스 1316" d="M11.815,715.965l12.945-7.807,2.54,15.228Z" transform="translate(-2.246 -408.656)" fill="#ffb361"/>
        <path id="패스_1317" data-name="패스 1317" d="M47.026,306.456l.9-5.908L53.255,304Z" transform="translate(-22.827 -170.409)" fill="#d5cafc"/>
        <path id="패스_1318" data-name="패스 1318" d="M286.16,187.7l6.433-11.679,8.5,11.346Z" transform="translate(-162.6 -97.621)" fill="#e9ff99"/>
        <path id="패스_1319" data-name="패스 1319" d="M39.575,78.484l2-13.183,11.9,7.707Z" transform="translate(-18.471 -32.908)" fill="#d5cafc"/>
        <path id="패스_1320" data-name="패스 1320" d="M276.689,114.076l2-13.183,11.9,7.707Z" transform="translate(-157.064 -53.711)" fill="#ffce99"/>
        <path id="패스_1321" data-name="패스 1321" d="M115.278,712.027l2-13.183,11.9,7.707Z" transform="translate(-62.72 -403.212)" fill="#efafab"/>
        <path id="패스_1322" data-name="패스 1322" d="M1027.189,728.689l6.993-11.353,7.941,11.746Z" transform="translate(-595.73 -414.021)" fill="#ffb361"/>
        <path id="패스_1323" data-name="패스 1323" d="M930.741,22.183,932.74,9l11.9,7.707Z" transform="translate(-539.357 0)" fill="#ffce99"/>
        <path id="패스_1324" data-name="패스 1324" d="M566.006,301.55l12.945-7.807,2.54,15.228Z" transform="translate(-326.169 -166.431)" fill="#d5cafc"/>
        <path id="패스_1325" data-name="패스 1325" d="M240.343,27.874l12.945-7.807,2.54,15.228Z" transform="translate(-135.82 -6.469)" fill="#d5cafc"/>
        <path id="패스_1326" data-name="패스 1326" d="M1073.155,40.978l-.461-13.326,13.115,5.386Z" transform="translate(-622.327 -10.902)" fill="#efafab"/>
        <path id="패스_1327" data-name="패스 1327" d="M253.1,220.368l-2.536-14.9,15.1,3.2Z" transform="translate(-141.793 -114.833)" fill="#ffb361"/>
        <path id="패스_1328" data-name="패스 1328" d="M1066.025,53.308l10.479-10.9,6.4,14.049Z" transform="translate(-618.43 -19.53)" fill="#ffb361"/>
        <path id="패스_1329" data-name="패스 1329" d="M425.662,238.362l2-13.183,11.9,7.707Z" transform="translate(-244.139 -126.356)" fill="#d5cafc"/>
        <path id="패스_1330" data-name="패스 1330" d="M890.658,489.566l-5.57-.024,2.461-5.387Z" transform="translate(-512.673 -277.727)" fill="#d5cafc"/>
        <path id="패스_1331" data-name="패스 1331" d="M103.26,37.5l5.716,19.723L92.468,40.7Z" transform="translate(-49.388 -16.656)" fill="#efafab"/>
        <path id="패스_1332" data-name="패스 1332" d="M241.053,134.249l5.444-10.2,9.45,10.912Z" transform="translate(-136.235 -67.248)" fill="#efafab"/>
        <path id="패스_1333" data-name="패스 1333" d="M879.557,233.961l6.794-3.065-5.088,6.779Z" transform="translate(-509.439 -129.698)" fill="#d5cafc"/>
        <path id="패스_1334" data-name="패스 1334" d="M643.159,134.536l2.815-3.513,2.836,4.854Z" transform="translate(-371.265 -71.322)" fill="#ffb361"/>
        <path id="패스_1335" data-name="패스 1335" d="M1094.074,128.684l.841-5.422,4.831,2.84Z" transform="translate(-634.824 -66.786)" fill="#e9ff99"/>
        <path id="패스_1336" data-name="패스 1336" d="M902.817,113.651l-3.038-3.022,4.883-2.189Z" transform="translate(-521.26 -58.122)" fill="#ffb361"/>
        <path id="패스_1337" data-name="패스 1337" d="M491.65,63.874l5,14.266-14.571-8.334Z" transform="translate(-277.116 -32.074)" fill="#e9ff99"/>
        <path id="패스_1338" data-name="패스 1338" d="M887.732,182.353l5.444-10.2,9.45,10.912Z" transform="translate(-514.218 -95.365)" fill="#d5cafc"/>
        <path id="패스_1339" data-name="패스 1339" d="M1007.564,476.357l-6.009,8.023,8.129-1.522Z" transform="translate(-580.747 -273.169)" fill="#ffce99"/>
        <path id="패스_1340" data-name="패스 1340" d="M974.206,714.3l3.239-4.043,3.263,5.586Z" transform="translate(-564.761 -409.885)" fill="#ffce99"/>
        <path id="패스_1341" data-name="패스 1341" d="M104.079,93l.9-5.818,5.183,3.047Z" transform="translate(-56.174 -45.697)" fill="#e9ff99"/>
        <path id="패스_1342" data-name="패스 1342" d="M58.947,179.976l1.368-3.542,4.82,4.208Z" transform="translate(-29.794 -97.865)" fill="#ffb361"/>
        <path id="패스_1343" data-name="패스 1343" d="M939.023,458.335l12.945-7.807,2.54,15.228Z" transform="translate(-544.197 -258.072)" fill="#e9ff99"/>
        <path id="패스_1344" data-name="패스 1344" d="M17.254,551.072,30.2,543.265l2.54,15.228Z" transform="translate(-5.425 -312.277)" fill="#d5cafc"/>
        <path id="패스_1345" data-name="패스 1345" d="M1015.3,276.364l10.061-17.9-.21,23.35Z" transform="translate(-588.78 -145.811)" fill="#d5cafc"/>
        <path id="패스_1346" data-name="패스 1346" d="M810.742,28.474l13.587-1.381-4.472,16.46Z" transform="translate(-469.217 -10.575)" fill="#efafab"/>
        <path id="패스_1347" data-name="패스 1347" d="M1030.93,172.323l6.557,5.529-9.564-1.914Z" transform="translate(-596.159 -95.462)" fill="#efafab"/>
        <path id="패스_1348" data-name="패스 1348" d="M1018.678,220.446l4.7,1.1L1020,226.533Z" transform="translate(-590.756 -123.59)" fill="#ffb361"/>
        <path id="패스_1349" data-name="패스 1349" d="M360.033,180.478l6.046-1.821-.547,6.425Z" transform="translate(-205.779 -99.165)" fill="#e9ff99"/>
        <path id="패스_1350" data-name="패스 1350" d="M62.055,711.54l-3.5-3.478,5.62-2.519Z" transform="translate(-29.568 -407.128)" fill="#ffb361"/>
        <path id="패스_1351" data-name="패스 1351" d="M699.374,123.155l18.717-8.445-14.018,18.675Z" transform="translate(-404.123 -61.788)" fill="#e9ff99"/>
        <path id="패스_1352" data-name="패스 1352" d="M83.485,855.852l-.94,4.393,3.023-2.145Z" transform="translate(-43.588 -494.984)" fill="#e9ff99"/>
        <path id="패스_1353" data-name="패스 1353" d="M647,43.683l7.289-3.289-5.459,7.273Z" transform="translate(-373.513 -18.35)" fill="#ffb361"/>
        <path id="패스_1354" data-name="패스 1354" d="M669.691,98.855l2.815-3.513,2.836,4.854Z" transform="translate(-386.773 -50.467)" fill="#a5dbca"/>
        <path id="패스_1355" data-name="패스 1355" d="M441.781,196.887l.841-5.422,4.831,2.839Z" transform="translate(-253.56 -106.65)" fill="#e9ff99"/>
        <path id="패스_1356" data-name="패스 1356" d="M111.826,163.9l-.988-5.8,5.882,1.247Z" transform="translate(-60.125 -87.147)" fill="#ffb361"/>
        <path id="패스_1357" data-name="패스 1357" d="M367.253,350.124l.778-5.134,4.635,3Z" transform="translate(-209.999 -196.385)" fill="#ffce99"/>
        <path id="패스_1358" data-name="패스 1358" d="M743,29.305l1.452-6.154,5.421,3.109Z" transform="translate(-429.624 -8.271)" fill="#d5cafc"/>
        <path id="패스_1359" data-name="패스 1359" d="M995.448,369.462l.9-5.908,5.333,3.454Z" transform="translate(-577.178 -207.236)" fill="#d5cafc"/>
        <path id="패스_1360" data-name="패스 1360" d="M1100.5,787.482l.835-5.507,4.971,3.219Z" transform="translate(-638.578 -451.803)" fill="#e9ff99"/>
        <path id="패스_1361" data-name="패스 1361" d="M357.094,138.635l-5.57-.024,2.461-5.387Z" transform="translate(-200.805 -72.609)" fill="#efafab"/>
        <path id="패스_1362" data-name="패스 1362" d="M41.7,143.081l.778-5.134,4.635,3Z" transform="translate(-19.717 -75.369)" fill="#ffb361"/>
        <path id="패스_1363" data-name="패스 1363" d="M864.557,215.311l5.328-1.624-.758,5.874Z" transform="translate(-500.672 -119.639)" fill="#ffce99"/>
        <path id="패스_1364" data-name="패스 1364" d="M1070.215,516.5l12.945-7.807,2.54,15.228Z" transform="translate(-620.879 -292.069)" fill="#e9ff99"/>
        <path id="패스_1365" data-name="패스 1365" d="M239.989,298.39l5.041-3.041.989,5.931Z" transform="translate(-135.613 -167.37)" fill="#d5cafc"/>
        <path id="패스_1366" data-name="패스 1366" d="M142.215,123.8l.778-5.134,4.635,3Z" transform="translate(-78.465 -64.098)" fill="#d5cafc"/>
        <path id="패스_1367" data-name="패스 1367" d="M48.038,567.12l-2.536-14.9,15.1,3.2Z" transform="translate(-21.936 -317.509)" fill="#ffb361"/>
        <path id="패스_1368" data-name="패스 1368" d="M958.461,130.662l5.041-3.041.989,5.93Z" transform="translate(-555.559 -69.334)" fill="#ffce99"/>
        <path id="패스_1369" data-name="패스 1369" d="M771.924,302.487l.778-5.134,4.634,3Z" transform="translate(-446.528 -168.542)" fill="#ffce99"/>
        <path id="패스_1370" data-name="패스 1370" d="M355.6,119.7l13.916-8.193,3.348,17Z" transform="translate(-203.188 -59.914)" fill="#e9ff99"/>
        <path id="패스_1371" data-name="패스 1371" d="M134.522,839.382l5.328-1.624-.758,5.874Z" transform="translate(-73.968 -484.407)" fill="#d5cafc"/>
        <path id="패스_1372" data-name="패스 1372" d="M321.12,423.738l3.9,13.452L313.76,425.926Z" transform="translate(-178.732 -242.414)" fill="#efafab"/>
        <path id="패스_1373" data-name="패스 1373" d="M1044.662,214.792l12.766-5.76-9.561,12.737Z" transform="translate(-605.943 -116.919)" fill="#ffb361"/>
        <path id="패스_1374" data-name="패스 1374" d="M160.718,593.486l7.786,1.234-4.925,8.526Z" transform="translate(-89.28 -341.631)" fill="url(#linear-gradient-2)"/>
        <path id="패스_1375" data-name="패스 1375" d="M7.972,620.476l1.581-10.189,9.078,5.336Z" transform="translate(0 -351.451)" fill="#e9ff99"/>
        <path id="패스_1376" data-name="패스 1376" d="M84.781,342.037l-5.321-5.293,8.553-3.834Z" transform="translate(-41.784 -189.325)" fill="#ffb361"/>
        <path id="패스_1377" data-name="패스 1377" d="M234.919,271.584l-5.035,4.624h5.641Z" transform="translate(-129.707 -153.48)" fill="#a5dbca"/>
        <path id="패스_1378" data-name="패스 1378" d="M948.716,188.986l4.93-6.152,4.966,8.5Z" transform="translate(-549.863 -101.606)" fill="#ffce99"/>
        <path id="패스_1379" data-name="패스 1379" d="M22.032,454.2l9.633-3.674-.137,10.529Z" transform="translate(-8.218 -258.072)" fill="#e9ff99"/>
        <path id="패스_1380" data-name="패스 1380" d="M875.968,282.215l6.574-.992-2.219,10.983Z" transform="translate(-507.342 -159.114)" fill="#ffb361"/>
        <path id="패스_1381" data-name="패스 1381" d="M1051.811,802.862l3.957-2.386.776,4.655Z" transform="translate(-610.121 -462.616)" fill="#f4c8c3"/>
        <path id="패스_1382" data-name="패스 1382" d="M704.9,252.922l1.5,13.924L697.274,253.8Z" transform="translate(-402.896 -142.572)" fill="#d5cafc"/>
        <path id="패스_1383" data-name="패스 1383" d="M383.984,286.787l7.786,1.234-4.925,8.526Z" transform="translate(-219.778 -162.366)" fill="#efafab"/>
        <path id="패스_1384" data-name="패스 1384" d="M167.549,302.156l11.328,8.236-15.8-1.995Z" transform="translate(-90.657 -171.349)" fill="#efafab"/>
        <path id="패스_1385" data-name="패스 1385" d="M209.958,629.32l7.052-3.523.951,9.8Z" transform="translate(-118.06 -360.516)" fill="#efafab"/>
        <path id="패스_1386" data-name="패스 1386" d="M74.109,573.488l.806-5.2,4.629,2.721Z" transform="translate(-38.657 -326.906)" fill="#e9ff99"/>
        <path id="패스_1387" data-name="패스 1387" d="M587.794,223.4l13.939,1.363L587.1,231.045Z" transform="translate(-338.498 -125.315)" fill="#e9ff99"/>
        <path id="패스_1388" data-name="패스 1388" d="M81.738,669.278l-6.785.836,4.59,3.279Z" transform="translate(-39.15 -385.931)" fill="#e9ff99"/>
        <path id="패스_1389" data-name="패스 1389" d="M928.54,145.259l11.328,8.236-15.8-1.995Z" transform="translate(-535.456 -79.643)" fill="#ffb361"/>
        <path id="패스_1390" data-name="패스 1390" d="M647.674,178.756,652.6,172.6l4.966,8.5Z" transform="translate(-373.905 -95.626)" fill="#ffce99"/>
        <path id="패스_1391" data-name="패스 1391" d="M951.315,628.313l9.633-3.674-.137,10.529Z" transform="translate(-551.382 -359.839)" fill="#ffb361"/>
        <path id="패스_1392" data-name="패스 1392" d="M617.018,117.014l-1.73-10.164,10.3,2.184Z" transform="translate(-354.975 -57.193)" fill="#ffb361"/>
        <path id="패스_1393" data-name="패스 1393" d="M91.809,419.223l4.5-2.715.883,5.3Z" transform="translate(-49.003 -238.187)" fill="url(#linear-gradient)"/>
        <path id="패스_1394" data-name="패스 1394" d="M140.933,245.819l1.363-8.992,8.117,5.257Z" transform="translate(-77.715 -133.165)" fill="#e9ff99"/>
        <path id="패스_1395" data-name="패스 1395" d="M820.5,268.8l8.486-3.271-.545,9.655Z" transform="translate(-474.919 -149.942)" fill="#d5cafc"/>
        <path id="패스_1396" data-name="패스 1396" d="M1075.547,388.963l8.486-3.271-.545,9.655Z" transform="translate(-623.996 -220.176)" fill="#ffb361"/>
        <path id="패스_1397" data-name="패스 1397" d="M119.177,481.209l.7-4.585,4.139,2.681Z" transform="translate(-64.999 -273.325)" fill="#ffce99"/>
        <path id="패스_1398" data-name="패스 1398" d="M858.323,386.131l-6.622.961,5.041-6.72Z" transform="translate(-493.158 -217.066)" fill="#d5cafc"/>
        <path id="패스_1399" data-name="패스 1399" d="M961.607,31.141l8.486-3.271-.545,9.655Z" transform="translate(-557.398 -11.03)" fill="#ffb361"/>
        <path id="패스_1400" data-name="패스 1400" d="M455.755,125.049l.7-4.585,4.139,2.68Z" transform="translate(-261.728 -65.151)" fill="#ffce99"/>
        <path id="패스_1401" data-name="패스 1401" d="M718.369,400.708l8.829-5.325,1.732,10.386Z" transform="translate(-415.225 -225.84)" fill="#e9ff99"/>
        <path id="패스_1402" data-name="패스 1402" d="M1057.506,618.68l8.829-5.325,1.732,10.386Z" transform="translate(-613.451 -353.244)" fill="#d5cafc"/>
        <path id="패스_1403" data-name="패스 1403" d="M70.438,762.01l8.486-3.271-.545,9.655Z" transform="translate(-36.511 -438.221)" fill="#d5cafc"/>
        <path id="패스_1404" data-name="패스 1404" d="M670.328,245.869l7.972-6.538,3.206,10.03Z" transform="translate(-387.146 -134.628)" fill="#ffb361"/>
        <path id="패스_1405" data-name="패스 1405" d="M999.837,145.6l9,5.031-8.164,6.65Z" transform="translate(-579.743 -79.842)" fill="#e9ff99"/>
        <path id="패스_1406" data-name="패스 1406" d="M1045.317,673.02l1.363-8.992,8.117,5.256Z" transform="translate(-606.326 -382.863)" fill="#e9ff99"/>
        <path id="패스_1407" data-name="패스 1407" d="M56.773,430.285l4.5-2.715.883,5.3Z" transform="translate(-28.524 -244.653)" fill="url(#linear-gradient)"/>
        <path id="패스_1408" data-name="패스 1408" d="M324.915,75.188l4.5-2.715.883,5.3Z" transform="translate(-185.252 -37.1)" fill="#ffb361"/>
        <path id="패스_1409" data-name="패스 1409" d="M394.681,76.721l.7-4.585,4.139,2.68Z" transform="translate(-226.03 -36.903)" fill="#ffce99"/>
        <g id="그룹_711" data-name="그룹 711" transform="translate(336.614 37.985)">
          <path id="패스_1410" data-name="패스 1410" d="M819.982,175.745s4.294-9.548-1.87-16.326S803.17,152,803.565,143.833c0,0,4.538,2.906,8.684,5.634S828.816,163.542,819.982,175.745Z" transform="translate(-801.629 -116.795)" fill="#e9ff99"/>
          <path id="패스_1411" data-name="패스 1411" d="M800.531,238.67s-2.476-8.353,7.326-18.38c10.682-10.926,14.136-17.636,12.382-25.914,0,0,.36,8.491-13.235,21.247C794.087,227.743,800.531,238.67,800.531,238.67Z" transform="translate(-798.924 -146.337)" fill="#e9ff99"/>
          <path id="패스_1412" data-name="패스 1412" d="M803.022,78.759s-1,8.868,6.687,11.374,6.787,6.18,6.787,6.18,2.155.259,1.785-3.14-2.577-5.842-8.127-7.705c-4.2-1.412-3.741-4.708-3.741-4.708Z" transform="translate(-801.294 -78.759)" fill="#e9ff99"/>
          <path id="패스_1413" data-name="패스 1413" d="M816.808,105.518s1.972,3.956-2.73,6.872-13.787,3.175-10.457,12.356c0,0,1.411-4.492,7.355-6.3S820.606,110.942,816.808,105.518Z" transform="translate(-801.25 -94.4)" fill="#e9ff99"/>
        </g>
        <g id="그룹_712" data-name="그룹 712" transform="translate(71.589 30.684)">
          <path id="패스_1414" data-name="패스 1414" d="M164.89,140.7s-3.667-9.875,3.751-15.725,17.033-5.375,17.462-13.4c0,0-5.242,2.269-10.038,4.414S156.564,127.66,164.89,140.7Z" transform="translate(-161.843 -90.637)" fill="#ffb361"/>
          <path id="패스_1415" data-name="패스 1415" d="M180.178,197.938a18.7,18.7,0,0,0,.855-7.922c-.018-.168-.038-.336-.059-.5a27.576,27.576,0,0,0-6.76-11.963c-13.914-13.725-12.162-22.438-12.162-22.438-2.779,7.871.273,14.866,10.744,26.893,9.608,11.037,6.036,18.891,6.036,18.891l.3-.23C179.526,199.768,179.876,198.858,180.178,197.938Z" transform="translate(-161.08 -116.086)" fill="#ffb361"/>
          <path id="패스_1416" data-name="패스 1416" d="M183.656,65.429c-4.7,4.825-.763,10.267,5.512,12.785s7.337,7.086,7.337,7.086c4.587-8.556-5.267-9.953-10.075-13.4-1.751-1.253-3.312-4.63-2.823-5.671,0,0-.287-.559,2.376-1.9,2.25-1.131,5.434,0,5.434,0l1.118-3.122a9.018,9.018,0,0,0-4.294.844A12.36,12.36,0,0,0,183.656,65.429Z" transform="translate(-173.066 -61.188)" fill="#ffb361"/>
        </g>
        <g id="그룹_713" data-name="그룹 713" transform="translate(208.865 58.055)">
          <path id="패스_1417" data-name="패스 1417" d="M513.9,197.022a19.458,19.458,0,0,1-.029,3.193c-.034.3-.08.6-.133.9a21.175,21.175,0,0,1-3.929,4.438c-4.064,3.723-8.746,6.769-11.308,11.73a39.67,39.67,0,0,0-1.931,4.5c.08-.117.159-.235.241-.351a24.368,24.368,0,0,1,1.739-2.205,17.3,17.3,0,0,1,1.793-2.047c3.477-3.374,7.844-6.067,10.791-9.932a16.748,16.748,0,0,0,2.221-4.325,15.6,15.6,0,0,0,1.181-3.206,18.883,18.883,0,0,0,1.2-4.85,20.876,20.876,0,0,0-3.134-12.832,40.9,40.9,0,0,0-9.337-9.946c-3.434-2.744-7.653-5.363-9.381-9.541a7.834,7.834,0,0,1-.557-2.173,16.774,16.774,0,0,1,5.225-3.491,35.262,35.262,0,0,0,5.871-3.714,11.213,11.213,0,0,0,3.375-5.108l.057-.149a12.328,12.328,0,0,0,1.066-2.8,20.807,20.807,0,0,0,1.26-5,11.846,11.846,0,0,0-7.141-11.58,24.994,24.994,0,0,0-4.168-1.05c-1.244-.218-2.649-.69-3.845-.223-.366.143-.8,2.1-.94,2.471-.216.585-.43,1.17-.639,1.757-.039.109-.169.7-.249.733,1.068-.417,2.024-.051,3.127.107a29.3,29.3,0,0,1,3.761.809,10.472,10.472,0,0,1,5.736,3.891,12.2,12.2,0,0,1,2.517,5.708,10.862,10.862,0,0,1-.061,2.951c-.019.136-.042.271-.066.4-1.253,1.91-3.255,3.034-5.184,4.22-.943.58-1.849,1.218-2.851,1.7a19.916,19.916,0,0,0-3.14,1.747,10.119,10.119,0,0,0-3.617,4.529c-.036.091-.074.184-.112.276-.2-.181-1.183,2.5-1.354,3.4a8.344,8.344,0,0,0-.483,3.02c.245,4.367,4.4,7.863,7.752,10.361a49.628,49.628,0,0,1,9.973,9.384A21.58,21.58,0,0,1,513.9,197.022Z" transform="translate(-491.467 -127.061)" fill="#efafab"/>
          <path id="패스_1418" data-name="패스 1418" d="M495.91,183.965c.038-.092.076-.185.112-.276a10.119,10.119,0,0,1,3.617-4.529,19.909,19.909,0,0,1,3.139-1.747c1-.486,1.908-1.125,2.851-1.7,1.929-1.186,3.931-2.31,5.184-4.22l.709-.978a12.328,12.328,0,0,1-1.066,2.8l-.057.149a11.213,11.213,0,0,1-3.375,5.108,35.265,35.265,0,0,1-5.871,3.714,16.774,16.774,0,0,0-5.225,3.491Z" transform="translate(-494.064 -152.458)" fill="#efafab"/>
          <path id="패스_1419" data-name="패스 1419" d="M520.538,307.092a16.753,16.753,0,0,1-2.221,4.325c-2.947,3.865-7.314,6.558-10.791,9.932a17.309,17.309,0,0,0-1.793,2.047,24.4,24.4,0,0,0-1.739,2.205c-.082.116-.161.234-.241.351a39.645,39.645,0,0,1,1.931-4.5c2.562-4.962,7.245-8.008,11.308-11.73a21.183,21.183,0,0,0,3.929-4.438Z" transform="translate(-498.648 -231.233)" fill="#efafab"/>
        </g>
        <g id="그룹_714" data-name="그룹 714" transform="translate(420.856 217.96)">
          <path id="패스_1420" data-name="패스 1420" d="M1024.546,552.445a13.986,13.986,0,0,1-2.447-.022,11.072,11.072,0,0,1-2.818-.615,7.474,7.474,0,0,1-3.3-3.279c-1.428-2.56-1.825-5.533-2.129-8.4l-.009-.087a16.89,16.89,0,0,0,2.409-6.479,38.762,38.762,0,0,0,.127-9.973c-.506-3.8-2.085-7.634-5.164-10.06a8.4,8.4,0,0,0-3.7-1.619q-1.244,1.828-2.438,3.69a10.987,10.987,0,0,1,4.332.782c2.981,1.365,4.993,4.521,5.987,7.537a20.423,20.423,0,0,1,.928,4.833c.033.428.052.856.063,1.285,0,.047,0,.1,0,.142-.154.7-.687,2.437-.754,2.612a21.24,21.24,0,0,1-2.207,4.307,7.084,7.084,0,0,0-2.063-4.008c-2.378-2.09-6.687-2.1-8.616.558a6.69,6.69,0,0,0-1.014,3.885,12.672,12.672,0,0,0-.058,1.471,7.03,7.03,0,0,0,.749,3.826,4.838,4.838,0,0,0,3.831,2.664,6.35,6.35,0,0,0,4.861-2.077,15.982,15.982,0,0,0,2.114-2.454c.347,1.59.421,3.244.633,4.852a17.357,17.357,0,0,0,2.229,7.078,7.075,7.075,0,0,0,3.162,2.84,13.083,13.083,0,0,0,5.1.563C1024.457,556.3,1024.5,552.446,1024.546,552.445Zm-15.2-11.426c-3.007,1.648-6.1-.117-7.149-2.953.056-.1.114-.2.176-.3a5.168,5.168,0,0,1,1.554-1.576,5.728,5.728,0,0,1,4.035-.627,5.9,5.9,0,0,1,4.4,2.94A10.963,10.963,0,0,1,1009.349,541.019Z" transform="translate(-1001.671 -511.909)" fill="#efafab"/>
          <path id="패스_1421" data-name="패스 1421" d="M1016.688,523.652c-.507-3.8-2.085-7.634-5.165-10.06a8.392,8.392,0,0,0-3.7-1.619q-1.244,1.828-2.438,3.69a10.982,10.982,0,0,1,4.332.782c2.981,1.365,4.994,4.521,5.987,7.537a15.823,15.823,0,0,1,.875,4.239c.032.428.118,2.022.118,2.022A53.159,53.159,0,0,0,1016.688,523.652Zm-14.18,14.478s.262-.431.628-.909.385-.4,1.257-1.06,2.618-.9,5-.261a5.188,5.188,0,0,1,3.281,2.667,4.468,4.468,0,0,0,.6-1.366,3.516,3.516,0,0,0-.482-2.672,4.349,4.349,0,0,0-1.115-1.375c-2.377-2.09-6.687-2.1-8.616.557a5.459,5.459,0,0,0-.88,2.724A4.409,4.409,0,0,0,1002.508,538.13Z" transform="translate(-1001.965 -511.946)" fill="#efafab"/>
        </g>
        <g id="그룹_715" data-name="그룹 715" transform="translate(47.293 221.127)">
          <path id="패스_1422" data-name="패스 1422" d="M106.494,602.062s-4.646-7.73.672-13.827,13.486-7.221,12.578-14.047c0,0-4.052,2.74-7.75,5.3S97.427,592.405,106.494,602.062Z" transform="translate(-102.82 -551.479)" fill="#ffb361"/>
          <path id="패스_1423" data-name="패스 1423" d="M124.146,655.578s1.765-7.176-8.064-14.942c-10.712-8.463-14.386-13.867-13.291-20.931,0,0,.224,7.151,13.781,16.957C129.452,645.978,124.146,655.578,124.146,655.578Z" transform="translate(-102.606 -578.083)" fill="#ffb361"/>
          <path id="패스_1424" data-name="패스 1424" d="M120.769,519.533s1.519,7.377-5.5,9.99-5.94,5.638-5.94,5.638-2,.36-1.876-2.518,2.025-5.075,7.092-7.006c3.84-1.464,3.189-4.2,3.189-4.2Z" transform="translate(-105.434 -519.533)" fill="#ffb361"/>
          <path id="패스_1425" data-name="패스 1425" d="M108.514,544.2s-1.583,3.452,3.007,5.587,13.1,1.752,10.6,9.678c0,0-1.616-3.677-7.295-4.8S105.319,549,108.514,544.2Z" transform="translate(-105.381 -533.95)" fill="#ffb361"/>
        </g>
        <g id="그룹_716" data-name="그룹 716" transform="translate(395.002 98.071)">
          <path id="패스_1426" data-name="패스 1426" d="M940.84,286.4a21.9,21.9,0,0,0-.051,2.988c.019.286.048.573.082.858a23.642,23.642,0,0,0,2.937,4.684c3.058,4.034,6.61,7.519,8.479,12.506.544,1.452.988,2.955,1.39,4.467-.059-.12-.118-.241-.178-.361-.388-.767-.82-1.546-1.3-2.3a19.264,19.264,0,0,0-1.34-2.158c-2.612-3.628-5.929-6.74-8.12-10.755a19.977,19.977,0,0,1-1.618-4.345,18.755,18.755,0,0,1-.84-3.157,22.554,22.554,0,0,1-.818-4.7,20.81,20.81,0,0,1,2.719-11.566,29.19,29.19,0,0,1,7.452-8.024c2.72-2.1,6.044-3.969,7.477-7.639a7.776,7.776,0,0,0,.481-1.955,16.427,16.427,0,0,0-3.962-3.976,34.07,34.07,0,0,1-4.457-4.272,13.025,13.025,0,0,1-2.493-5.235l-.041-.147a14.872,14.872,0,0,1-.76-2.758,24.874,24.874,0,0,1-.86-4.847,10.8,10.8,0,0,1,1.416-6.068,7.4,7.4,0,0,1,4.375-3.782,15.225,15.225,0,0,1,3.249-.413c.967-.034,2.065-.284,2.98.316a9.519,9.519,0,0,1,.67,2.438c.153.576.306,1.152.454,1.729a3.716,3.716,0,0,0,.176.719,3.835,3.835,0,0,0-2.422-.326,18.02,18.02,0,0,0-2.928.243,6.728,6.728,0,0,0-4.527,2.855,10.917,10.917,0,0,0-2.078,4.992,12.307,12.307,0,0,0-.021,2.766c.012.13.026.259.042.388a15.742,15.742,0,0,0,3.913,4.651c.717.67,1.4,1.391,2.167,1.982a18.546,18.546,0,0,1,2.388,2.061,11.433,11.433,0,0,1,2.694,4.726c.026.09.053.182.08.273.161-.141.858,2.5.969,3.358a9.786,9.786,0,0,1,.3,2.888c-.289,4.048-3.582,6.75-6.235,8.628a34.088,34.088,0,0,0-7.931,7.411A19.947,19.947,0,0,0,940.84,286.4Z" transform="translate(-939.446 -223.371)" fill="#ffb361"/>
          <path id="패스_1427" data-name="패스 1427" d="M966.709,274.632c-.027-.091-.054-.183-.08-.273a11.434,11.434,0,0,0-2.695-4.726,18.553,18.553,0,0,0-2.388-2.061c-.765-.591-1.45-1.312-2.167-1.982a15.75,15.75,0,0,1-3.913-4.651l-.526-1.011a14.86,14.86,0,0,0,.76,2.758c.014.049.028.1.041.147a13.029,13.029,0,0,0,2.493,5.234,34.05,34.05,0,0,0,4.457,4.272,16.435,16.435,0,0,1,3.962,3.976Z" transform="translate(-948.502 -244.738)" fill="#ffb361"/>
          <path id="패스_1428" data-name="패스 1428" d="M943.13,386.06a19.975,19.975,0,0,0,1.619,4.344c2.191,4.015,5.507,7.127,8.12,10.755a19.25,19.25,0,0,1,1.34,2.158c.476.752.907,1.531,1.3,2.3.061.12.119.241.178.361-.4-1.512-.846-3.015-1.39-4.467-1.868-4.987-5.421-8.472-8.479-12.506a23.641,23.641,0,0,1-2.937-4.684Z" transform="translate(-941.451 -317.445)" fill="#ffb361"/>
        </g>
        <g id="그룹_717" data-name="그룹 717" transform="translate(81.846 152.029)">
          <path id="패스_1429" data-name="패스 1429" d="M191.881,425.079c2.238-3.191,3.2-7.446,3.548-11.533.449-5.226-1.072-10.486-1.982-15.665a15,15,0,0,1,.084-7.324c.068-.211.144-.419.223-.626a23.389,23.389,0,0,0,1.623,2.123,6.1,6.1,0,0,0,2.208,1.78,2.874,2.874,0,0,0,1.889,0,8.574,8.574,0,0,0,1.729-.56,5.167,5.167,0,0,0,2.354-1.116,3.761,3.761,0,0,0,.824-3.007,4.022,4.022,0,0,0-1.425-3,5.935,5.935,0,0,0-3.432-1.323,10.125,10.125,0,0,0-3.552.786c-.276.088-.548.175-.814.267a43.818,43.818,0,0,1-3.175-10.8,15.3,15.3,0,0,1,.184-5.653,8.182,8.182,0,0,1,1.669-4.1,9.555,9.555,0,0,0,2.295,4.733,7.144,7.144,0,0,0,6.133,2.3c-.027.012-.05.027-.078.038l.259-.082c.07-.017.14-.031.209-.052a9.678,9.678,0,0,0,3.469-1.3,3.234,3.234,0,0,0,.746-3.333,7.463,7.463,0,0,0-1.438-3.472,6.012,6.012,0,0,0-2.956-1.215,10.417,10.417,0,0,0-5.63.425,17.3,17.3,0,0,1,.028-4.6,22.211,22.211,0,0,1,.642-2.973,5.843,5.843,0,0,1,1.107-2.559c-.27.285-1.218.366-1.592.484-.413.13-1.266.189-1.581.52a7.68,7.68,0,0,0-1.34,3.431,18.928,18.928,0,0,0-.575,4.448,16.324,16.324,0,0,0,.148,2.3,7.08,7.08,0,0,0-3.628,2.688,10.358,10.358,0,0,0-1.1,3.5,15.7,15.7,0,0,0-.28,4.561,36.308,36.308,0,0,0,.919,4.418,47.231,47.231,0,0,0,1.448,4.928,23.712,23.712,0,0,0,1.344,3.129,11.679,11.679,0,0,0-2.562,6.715c-.151,3.164.848,6.51,1.444,9.633a38.954,38.954,0,0,1,.982,10.563,28.048,28.048,0,0,1-2.171,9.174,13.78,13.78,0,0,1-4.317,5.343A29.593,29.593,0,0,0,191.881,425.079Zm8.5-60.858a4.026,4.026,0,0,1,1.969,1.034,6.227,6.227,0,0,1,1.131,2.609,4.582,4.582,0,0,1-.069,3.52,9.227,9.227,0,0,1-3.285-1.6,8.834,8.834,0,0,1-3.03-5.068c-.079-.332-.144-.667-.2-1A11.666,11.666,0,0,1,200.376,364.221Zm-4.637,22.841c-.06-.114-.117-.231-.175-.346a9.517,9.517,0,0,1,.948-.866,4.009,4.009,0,0,1,.407.036,5.814,5.814,0,0,1,1.482.427,4.592,4.592,0,0,1,2.435,2.153,5.59,5.59,0,0,1,.287,3.3,3.125,3.125,0,0,1-.438,1.017,5.84,5.84,0,0,1-1.964-1.536A21.254,21.254,0,0,1,195.739,387.062Z" transform="translate(-185.767 -353.233)" fill="#ffce99"/>
          <path id="패스_1430" data-name="패스 1430" d="M210.1,377.041s.276,0,.711.01a3.17,3.17,0,0,1,.65.058,13.538,13.538,0,0,1,3.18.954,3.307,3.307,0,0,1,1.522,1.5,11.887,11.887,0,0,1,.829,3.688,1.825,1.825,0,0,1-.379,1.46,1.139,1.139,0,0,0,.591.221,3.627,3.627,0,0,0,1.421-.2,3.178,3.178,0,0,0,.7-.452,3.234,3.234,0,0,0,.746-3.333,7.465,7.465,0,0,0-1.438-3.471,6.017,6.017,0,0,0-2.956-1.215,10.417,10.417,0,0,0-5.63.426Zm-1.006,22.043a3.805,3.805,0,0,1,1.03.132,8.367,8.367,0,0,1,2.232.813c.947.468,1.023.8,1.547,1.495a5.06,5.06,0,0,1,.533,2.878,2.707,2.707,0,0,1-.546,1.711,3,3,0,0,0,.945.364,4.057,4.057,0,0,0,1.214-.469,2.235,2.235,0,0,0,.71-.527,3.762,3.762,0,0,0,.823-3.007,4.021,4.021,0,0,0-1.425-3,5.936,5.936,0,0,0-3.432-1.323,10.123,10.123,0,0,0-3.551.786c-.276.089-.548.175-.814.267A2.974,2.974,0,0,1,209.095,399.084Z" transform="translate(-198.973 -366.564)" fill="#ffce99"/>
        </g>
        <g id="그룹_718" data-name="그룹 718" transform="translate(30.616 110.324)">
          <path id="패스_1431" data-name="패스 1431" d="M62.643,282.916a19.915,19.915,0,0,0,2.575.206,15.425,15.425,0,0,0,3.021-.222,7.563,7.563,0,0,0,3.77-2.255,14.074,14.074,0,0,0,3.007-6.359l.017-.067a11,11,0,0,1-1.94-5.274,22.7,22.7,0,0,1,.779-7.79,11.748,11.748,0,0,1,6.352-7.374,10.877,10.877,0,0,1,4.039-.924q1.141,1.539,2.227,3.1a15.389,15.389,0,0,0-4.628.214,11.385,11.385,0,0,0-6.986,5.331,12.763,12.763,0,0,0-1.418,3.685c-.074.331-.133.663-.184,1-.005.037-.01.074-.015.111.1.558.5,1.963.554,2.107a15.028,15.028,0,0,0,1.927,3.561,5.485,5.485,0,0,1,2.536-2.937c2.692-1.413,7.225-1.025,9.011,1.223A4.161,4.161,0,0,1,88,273.373a7.364,7.364,0,0,1-.074,1.152,4.44,4.44,0,0,1-1.138,2.916,5.514,5.514,0,0,1-4.273,1.727,7.758,7.758,0,0,1-4.922-2.065,13.923,13.923,0,0,1-2-2.107,35.583,35.583,0,0,0-1.109,3.726,11.7,11.7,0,0,1-2.992,5.317,7.466,7.466,0,0,1-3.585,1.925,18.494,18.494,0,0,1-5.413-.027C62.384,285.927,62.692,282.921,62.643,282.916Zm17.029-7.522a6.08,6.08,0,0,0,7.79-1.649c-.049-.085-.1-.169-.158-.251a4.771,4.771,0,0,0-1.49-1.371,7.81,7.81,0,0,0-4.187-.858,6.811,6.811,0,0,0-4.894,1.891A11,11,0,0,0,79.672,275.395Z" transform="translate(-62.469 -252.859)" fill="#ffb361"/>
          <path id="패스_1432" data-name="패스 1432" d="M88.975,261.2a11.748,11.748,0,0,1,6.352-7.374,10.88,10.88,0,0,1,4.039-.924q1.141,1.539,2.227,3.1a15.385,15.385,0,0,0-4.628.214,11.385,11.385,0,0,0-6.986,5.331,9.965,9.965,0,0,0-1.308,3.226c-.074.331-.309,1.566-.309,1.566A31.075,31.075,0,0,1,88.975,261.2Zm13.589,12.588a9.246,9.246,0,0,0-.577-.766c-.34-.406-.367-.35-1.225-.942s-2.671-.942-5.234-.66a5.418,5.418,0,0,0-3.694,1.78,3.079,3.079,0,0,1-.5-1.12,2.234,2.234,0,0,1,.751-2.04,4.121,4.121,0,0,1,1.3-.971c2.692-1.413,7.225-1.025,9.011,1.223a3.429,3.429,0,0,1,.676,2.2A2.8,2.8,0,0,1,102.564,273.791Z" transform="translate(-77.589 -252.886)" fill="#ffb361"/>
        </g>
        <path id="패스_1433" data-name="패스 1433" d="M1051.084,260.536l6.771,15.1-19.168-6.528Z" transform="translate(-602.451 -147.022)" fill="#efafab"/>
        <path id="패스_1434" data-name="패스 1434" d="M760.186,171.216l9.625-12.013,9.7,16.6Z" transform="translate(-439.667 -87.794)" fill="#d5cafc"/>
        <path id="패스_1435" data-name="패스 1435" d="M113.648,366.84l18.056-8.146-13.523,18.015Z" transform="translate(-61.767 -204.395)" fill="#efafab"/>
        <path id="패스_1436" data-name="패스 1436" d="M115.817,352.414l6.972-8.7,7.024,12.024Z" transform="translate(-63.035 -195.639)" fill="#ffb361"/>
        <path id="패스_1437" data-name="패스 1437" d="M359.87,56.075l2.236-14.41,12.839,7.546Z" transform="translate(-205.683 -19.093)" fill="#d5cafc"/>
        <path id="패스_1438" data-name="패스 1438" d="M23.877,583.984,16.352,576.5l12.1-5.423Z" transform="translate(-4.898 -328.532)" fill="#ffb361"/>
        <path id="패스_1439" data-name="패스 1439" d="M1060.5,255.878l-5.55-12.186,16.257-2.649Z" transform="translate(-611.955 -135.629)" fill="#e9ff99"/>
        <path id="패스_1440" data-name="패스 1440" d="M49.418,202.218l-18.53,15.535h20.76Z" transform="translate(-13.394 -112.936)" fill="#ffce99"/>
        <path id="패스_1441" data-name="패스 1441" d="M1064.656,541.236l14.1-2.88-9.57,12.749Z" transform="translate(-617.629 -309.407)" fill="#ffb361"/>
        <path id="패스_1442" data-name="패스 1442" d="M1058.705,484.391l6.972-8.7,7.024,12.024Z" transform="translate(-614.151 -272.779)" fill="#ffb361"/>
        <path id="패스_1443" data-name="패스 1443" d="M1047.481,336.24l9.058-16.344,8.235,13.835Z" transform="translate(-607.591 -181.718)" fill="#d5cafc"/>
      </g>
    </g>
    <text id="BLANC_채널_추가하고" data-name="BLANC 채널 추가하고" transform="translate(17210 1130)" fill="#41260a" font-size="25" font-family="NotoSansKR-Medium, Noto Sans KR" font-weight="500"><tspan x="-114.963" y="0">BLANC 채널 추가하고</tspan></text>
    <text id="_3000원_할인쿠폰_받자_" data-name="3000원 할인쿠폰 받자!" transform="translate(17210 1168)" fill="#41260a" font-size="30" font-family="NotoSansKR-Bold, Noto Sans KR" font-weight="700"><tspan x="-144.3" y="0">3000원 할인쿠폰 받자!</tspan></text>
    <g transform="matrix(1, 0, 0, 1, 17010, 1048)" filter="url(#패스_1444)">
      <path id="패스_1444-2" data-name="패스 1444" d="M1379.928,279.084v-3.772H1171.941v3.772a2.694,2.694,0,0,1,0,5.388V287.7a2.694,2.694,0,0,1,0,5.389v3.232a2.695,2.695,0,0,1,0,5.39v3.232a2.694,2.694,0,0,1,0,5.389v3.772a14.009,14.009,0,1,1,0,28.018V345.9a2.695,2.695,0,0,1,0,5.389v3.232a2.694,2.694,0,0,1,0,5.389v3.234a2.694,2.694,0,1,1,0,5.387v3.233a2.694,2.694,0,0,1,0,5.387v3.772h207.987V377.15a2.694,2.694,0,1,1,0-5.387v-3.233a2.694,2.694,0,1,1,0-5.387v-3.234a2.694,2.694,0,1,1,0-5.389v-3.232a2.695,2.695,0,0,1,0-5.389v-3.772a14.009,14.009,0,1,1,0-28.018v-3.772a2.694,2.694,0,1,1,0-5.389v-3.232a2.695,2.695,0,0,1,0-5.39v-3.232a2.694,2.694,0,1,1,0-5.389v-3.233a2.694,2.694,0,1,1,0-5.388Z" transform="translate(-1074.93 -125.31)" fill="#41260a"/>
    </g>
    <g id="그룹_720" data-name="그룹 720" transform="translate(16710 -546)">
      <text id="_3_000원" data-name="3,000원" transform="translate(501 1809)" fill="#fff" font-size="35" font-family="NotoSansKR-Regular, Noto Sans KR"><tspan x="-52.915" y="0">3,000</tspan><tspan y="0" font-size="20" font-family="NotoSansKR-Thin, Noto Sans KR" font-weight="200">원</tspan></text>
      <text id="SPECIAL_COUPON" data-name="SPECIAL COUPON" transform="translate(501 1834)" fill="#fff" font-size="9" font-family="NotoSansKR-Thin, Noto Sans KR" font-weight="200"><tspan x="-35.631" y="0">SPECIAL COUPON</tspan></text>
      <text id="즉시_사용_가능_쿠폰" data-name="즉시 사용 가능 쿠폰" transform="translate(501 1769)" fill="#fff" font-size="10" font-family="NotoSansKR-Light, Noto Sans KR" font-weight="300"><tspan x="-40.13" y="0">즉시 사용 가능 쿠폰</tspan></text>
    </g>
  </g>
</svg>
