<svg xmlns="http://www.w3.org/2000/svg" width="30" height="30" viewBox="0 0 30 30">
  <path id="패스_106" data-name="패스 106" d="M2802.593,269a15,15,0,1,0,15,15A15.007,15.007,0,0,0,2802.593,269Zm6.816,11.5c.01.151.01.3.01.455a9.94,9.94,0,0,1-10.007,10.007v0a9.958,9.958,0,0,1-5.391-1.577,7.052,7.052,0,0,0,5.205-1.458,3.529,3.529,0,0,1-3.286-2.442,3.512,3.512,0,0,0,1.588-.06,3.529,3.529,0,0,1-2.822-3.448v-.045a3.491,3.491,0,0,0,1.6.44,3.534,3.534,0,0,1-1.089-4.7,9.988,9.988,0,0,0,7.249,3.675,3.52,3.52,0,0,1,5.994-3.208,7.058,7.058,0,0,0,2.233-.854,3.529,3.529,0,0,1-1.546,1.945,7.02,7.02,0,0,0,2.02-.553A7.148,7.148,0,0,1,2809.409,280.5Z" transform="translate(-2787.593 -269.001)"/>
</svg>
