<svg xmlns="http://www.w3.org/2000/svg" width="10.105" height="10.105" viewBox="0 0 10.105 10.105">
  <g id="그룹_8" data-name="그룹 8" transform="translate(-411.319 -90.42)">
    <path id="패스_86" data-name="패스 86" d="M416.371,90.42a5.052,5.052,0,1,0,5.052,5.053A5.052,5.052,0,0,0,416.371,90.42Zm.381,9.324V99.4a.381.381,0,1,0-.763,0v.34a4.3,4.3,0,0,1-3.892-3.9h.329a.381.381,0,0,0,0-.763H412.1a4.3,4.3,0,0,1,3.89-3.879v.316a.381.381,0,1,0,.763,0V91.2a4.3,4.3,0,0,1,3.89,3.879h-.327a.381.381,0,0,0,0,.763h.329A4.3,4.3,0,0,1,416.753,99.744Z" fill="gray"/>
    <path id="패스_87" data-name="패스 87" d="M445.1,118.261l-2.259,2.367h-.013a.438.438,0,0,0-.083.008l-1.89-1.428a.286.286,0,0,0-.344.457l1.89,1.428a.429.429,0,0,0,.856-.036c0-.011,0-.022,0-.033l2.258-2.367a.286.286,0,1,0-.414-.395Z" transform="translate(-26.454 -25.25)" fill="gray"/>
  </g>
</svg>
