<svg xmlns="http://www.w3.org/2000/svg" width="9" height="8.358" viewBox="0 0 9 8.358">
  <path id="패스_85" data-name="패스 85" d="M450.144,426.873c-.221-.111-1.311-.647-1.513-.72s-.351-.111-.5.111-.572.72-.7.869-.259.167-.48.057a6.026,6.026,0,0,1-1.78-1.1,6.722,6.722,0,0,1-1.233-1.535c-.13-.221-.013-.343.1-.453s.221-.259.332-.388a1.47,1.47,0,0,0,.221-.37.407.407,0,0,0-.019-.388c-.057-.111-.5-1.2-.682-1.645s-.362-.372-.5-.38-.278-.008-.424-.008a.815.815,0,0,0-.591.278,2.487,2.487,0,0,0-.774,1.848,4.3,4.3,0,0,0,.9,2.29,9.875,9.875,0,0,0,3.784,3.345,12.7,12.7,0,0,0,1.262.467,3.025,3.025,0,0,0,1.395.089,2.285,2.285,0,0,0,1.494-1.052,1.873,1.873,0,0,0,.129-1.052c-.054-.092-.2-.146-.423-.259Z" transform="translate(-441.599 -420.92)" fill-rule="evenodd"/>
</svg>
