<svg xmlns="http://www.w3.org/2000/svg" width="30" height="30" viewBox="0 0 30 30">
  <path id="패스_105" data-name="패스 105" d="M2987.021,284.422a15,15,0,1,0-17.344,14.908V288.784h-3.809v-4.362h3.809V281.1a5.975,5.975,0,0,1,1.548-4.354,4.663,4.663,0,0,1,.566-.477,4.863,4.863,0,0,1,.719-.441,6.391,6.391,0,0,1,2.833-.6,22.921,22.921,0,0,1,3.357.295h0v3.714h-1.891a2.4,2.4,0,0,0-1.913.723,2.454,2.454,0,0,0-.531,1.634v2.831h4.16l-.57,3.741-.094.621h-3.5V299.33A15.067,15.067,0,0,0,2987.021,284.422Z" transform="translate(-2957.021 -269.33)"/>
</svg>
