<svg xmlns="http://www.w3.org/2000/svg" width="29.994" height="29.994" viewBox="0 0 29.994 29.994">
  <g id="그룹_15" data-name="그룹 15" transform="translate(-1575 -4323)">
    <g id="그룹_14" data-name="그룹 14" transform="translate(1575 4323)">
      <path id="패스_102" data-name="패스 102" d="M2919.94,420.251a2.838,2.838,0,0,0-1.626-1.626,4.737,4.737,0,0,0-1.591-.3c-.9-.041-1.175-.05-3.463-.05s-2.559.009-3.463.05a4.736,4.736,0,0,0-1.591.3,2.838,2.838,0,0,0-1.627,1.626,4.743,4.743,0,0,0-.294,1.591c-.042.9-.051,1.175-.051,3.463s.009,2.559.051,3.463a4.742,4.742,0,0,0,.294,1.591,2.838,2.838,0,0,0,1.627,1.627,4.745,4.745,0,0,0,1.591.295c.9.041,1.175.05,3.463.05s2.56-.009,3.463-.05a4.746,4.746,0,0,0,1.591-.295,2.838,2.838,0,0,0,1.626-1.627,4.743,4.743,0,0,0,.3-1.591c.041-.9.05-1.175.05-3.463s-.009-2.559-.05-3.463A4.745,4.745,0,0,0,2919.94,420.251Zm-6.681,9.455a4.4,4.4,0,1,1,4.4-4.4A4.4,4.4,0,0,1,2913.259,429.706Zm4.574-7.947a1.028,1.028,0,1,1,1.028-1.028A1.028,1.028,0,0,1,2917.834,421.759Z" transform="translate(-2898.262 -410.309)"/>
      <path id="패스_103" data-name="패스 103" d="M2924.159,433.348a2.856,2.856,0,1,0,2.857,2.857A2.856,2.856,0,0,0,2924.159,433.348Z" transform="translate(-2909.162 -421.208)"/>
      <path id="패스_104" data-name="패스 104" d="M2892.42,389.468a15,15,0,1,0,15,15A15,15,0,0,0,2892.42,389.468Zm8.518,18.53a6.285,6.285,0,0,1-.4,2.08,4.382,4.382,0,0,1-2.506,2.506,6.3,6.3,0,0,1-2.08.4c-.914.042-1.206.052-3.533.052s-2.619-.01-3.533-.052a6.3,6.3,0,0,1-2.081-.4,4.384,4.384,0,0,1-2.506-2.506,6.28,6.28,0,0,1-.4-2.08c-.042-.914-.052-1.206-.052-3.533s.01-2.619.052-3.533a6.281,6.281,0,0,1,.4-2.08,4.382,4.382,0,0,1,2.506-2.506,6.289,6.289,0,0,1,2.081-.4c.914-.042,1.206-.051,3.533-.051s2.619.01,3.533.051a6.287,6.287,0,0,1,2.08.4,4.38,4.38,0,0,1,2.506,2.506,6.287,6.287,0,0,1,.4,2.08c.042.914.051,1.206.051,3.533S2900.979,407.084,2900.938,408Z" transform="translate(-2877.423 -389.468)"/>
    </g>
  </g>
</svg>
