<svg xmlns="http://www.w3.org/2000/svg" width="30.079" height="30.079" viewBox="0 0 30.079 30.079">
  <g id="그룹_16" data-name="그룹 16" transform="translate(-2694.193 -417.726)">
    <path id="패스_107" data-name="패스 107" d="M2709.233,417.726a15.04,15.04,0,1,0,15.04,15.04A15.039,15.039,0,0,0,2709.233,417.726Zm9.593,18.007a9.038,9.038,0,0,1-3.277,3.084,12.05,12.05,0,0,1-4.092,1.445,13.226,13.226,0,0,1-2.082.181,12.736,12.736,0,0,1-1.9-.115.326.326,0,0,0-.253.062c-1.252.879-2.5,1.759-3.795,2.577-.157.1-.321.188-.483.28a.509.509,0,0,1-.185.063c-.206.028-.328-.094-.284-.3.077-.36.184-.713.285-1.067q.382-1.341.767-2.681c.022-.078.015-.116-.066-.157a9.844,9.844,0,0,1-3.172-2.476,7.247,7.247,0,0,1-1.661-3.566,6.754,6.754,0,0,1,.776-4.36,8.851,8.851,0,0,1,3.042-3.2,11.866,11.866,0,0,1,4.417-1.711,13.231,13.231,0,0,1,3.559-.156,11.934,11.934,0,0,1,6.139,2.241,8.185,8.185,0,0,1,2.779,3.391A6.725,6.725,0,0,1,2718.826,435.733Z" transform="translate(0)"/>
    <path id="패스_108" data-name="패스 108" d="M2781.34,473.09c-.049-.064-.052-.1.009-.158.435-.428.865-.862,1.3-1.293a.552.552,0,0,0,.154-.235.6.6,0,0,0-.283-.666.519.519,0,0,0-.678.086q-.791.79-1.581,1.582a.764.764,0,0,0-.07.1l-.037-.025v-.084c0-.4,0-.8,0-1.206a.615.615,0,1,0-1.23,0q0,2.1,0,4.2a.632.632,0,0,0,.056.265.614.614,0,0,0,.665.352.6.6,0,0,0,.509-.587c.006-.424,0-.848,0-1.272,0-.072.141-.29.2-.287.078,0,.092.1.142.148a.339.339,0,0,1,.033.044c.427.565.852,1.132,1.282,1.7a.616.616,0,1,0,.972-.755Q2782.062,474.041,2781.34,473.09Z" transform="translate(-65.847 -41.067)"/>
    <path id="패스_109" data-name="패스 109" d="M2729.288,471.747a.6.6,0,0,0-.169-1.188q-1.562,0-3.123,0a.6.6,0,1,0,.006,1.206c.274,0,.548.006.822,0,.1,0,.118.031.118.123,0,.584,0,1.169,0,1.753s0,1.176,0,1.764a.613.613,0,0,0,.812.587.6.6,0,0,0,.424-.62q0-1.748,0-3.5c0-.083.018-.113.107-.111.274.006.548,0,.822,0A.7.7,0,0,0,2729.288,471.747Z" transform="translate(-24.234 -41.059)"/>
    <path id="패스_110" data-name="패스 110" d="M2766.239,474.809q-.6-.007-1.206,0c-.1,0-.121-.023-.121-.12q.005-1.715,0-3.43a.856.856,0,0,0-.018-.228.631.631,0,0,0-.671-.463.618.618,0,0,0-.567.617c0,.694,0,1.388,0,2.082s0,1.4,0,2.093a.559.559,0,0,0,.537.569q1.041.013,2.082,0a.562.562,0,0,0,.538-.59A.572.572,0,0,0,2766.239,474.809Z" transform="translate(-53.987 -41.064)"/>
    <path id="패스_111" data-name="패스 111" d="M2744.736,472.986c-.229-.6-.456-1.207-.688-1.808a.875.875,0,0,0-.951-.576.9.9,0,0,0-.691.608q-.629,1.65-1.253,3.3a5.36,5.36,0,0,0-.276.794c-.092.442.057.662.489.725a.552.552,0,0,0,.667-.384c.077-.2.157-.4.229-.6a.1.1,0,0,1,.118-.08c.285,0,.57,0,.855,0s.563,0,.844,0a.114.114,0,0,1,.13.093c.074.206.166.406.23.614a.5.5,0,0,0,.511.366.947.947,0,0,0,.386-.064.392.392,0,0,0,.27-.363,1.309,1.309,0,0,0-.1-.589Q2745.125,474,2744.736,472.986Zm-1.664.885c-.121,0-.242,0-.362,0-.078,0-.09-.016-.063-.089.159-.442.314-.886.47-1.329l.116-.331.616,1.748Z" transform="translate(-36.262 -41.084)"/>
  </g>
</svg>
