<svg xmlns="http://www.w3.org/2000/svg" width="17.196" height="17.196" viewBox="0 0 17.196 17.196">
  <g id="그룹_546" data-name="그룹 546" transform="translate(-2178.923 -82.505)">
    <path id="패스_1024" data-name="패스 1024" d="M2187.521,82.5c-2.335,0-2.627.01-3.545.052a6.309,6.309,0,0,0-2.087.4,4.4,4.4,0,0,0-2.514,2.515,6.313,6.313,0,0,0-.4,2.087c-.042.917-.052,1.21-.052,3.545s.01,2.628.052,3.545a6.314,6.314,0,0,0,.4,2.087,4.4,4.4,0,0,0,2.514,2.515,6.312,6.312,0,0,0,2.087.4c.917.042,1.21.052,3.545.052s2.628-.01,3.545-.052a6.311,6.311,0,0,0,2.087-.4,4.4,4.4,0,0,0,2.514-2.515,6.308,6.308,0,0,0,.4-2.087c.042-.917.052-1.21.052-3.545s-.01-2.628-.052-3.545a6.307,6.307,0,0,0-.4-2.087,4.4,4.4,0,0,0-2.514-2.515,6.311,6.311,0,0,0-2.087-.4c-.917-.042-1.209-.052-3.545-.052Zm0,1.549c2.3,0,2.568.009,3.474.05a4.758,4.758,0,0,1,1.6.3,2.847,2.847,0,0,1,1.632,1.632,4.748,4.748,0,0,1,.3,1.6c.041.907.05,1.179.05,3.474s-.009,2.568-.05,3.474a4.76,4.76,0,0,1-.3,1.6,2.846,2.846,0,0,1-1.632,1.632,4.752,4.752,0,0,1-1.6.3c-.906.041-1.178.05-3.474.05s-2.568-.009-3.474-.05a4.754,4.754,0,0,1-1.6-.3,2.846,2.846,0,0,1-1.632-1.632,4.752,4.752,0,0,1-.3-1.6c-.041-.907-.05-1.179-.05-3.474s.009-2.568.05-3.474a4.752,4.752,0,0,1,.3-1.6,2.847,2.847,0,0,1,1.632-1.632,4.759,4.759,0,0,1,1.6-.3c.906-.041,1.178-.05,3.474-.05Z" transform="translate(0)" fill="#232323"/>
    <path id="패스_1025" data-name="패스 1025" d="M2209.709,116.156a2.866,2.866,0,1,1,2.866-2.866,2.866,2.866,0,0,1-2.866,2.866Zm0-7.281a4.415,4.415,0,1,0,4.415,4.415,4.415,4.415,0,0,0-4.415-4.415Z" transform="translate(-22.188 -22.187)" fill="#232323"/>
    <path id="패스_1026" data-name="패스 1026" d="M2257.622,102.3a1.032,1.032,0,1,1-1.032-1.032,1.032,1.032,0,0,1,1.032,1.032Z" transform="translate(-64.48 -15.789)" fill="#232323"/>
  </g>
</svg>
