<svg xmlns="http://www.w3.org/2000/svg" width="933.948" height="185.393" viewBox="0 0 933.948 185.393">
  <g id="그룹_78" data-name="그룹 78" transform="translate(-495.254 -2018)">
    <text id="가죽_공예_실" data-name="가죽 공예 실" transform="translate(560.147 2197.393)" fill="#1a1818" font-size="16" font-family="NotoSansKR-Regular, Noto Sans KR"><tspan x="0" y="0">가죽 공예 실</tspan></text>
    <text id="바늘" transform="translate(846.129 2198.393)" fill="#1a1818" font-size="16" font-family="NotoSansKR-Regular, Noto Sans KR"><tspan x="0" y="0">바늘</tspan></text>
    <text id="심볼_로고" data-name="심볼 로고" transform="translate(1346.746 2197.393)" fill="#1a1818" font-size="16" font-family="NotoSansKR-Regular, Noto Sans KR"><tspan x="0" y="0">심볼 로고</tspan></text>
    <g id="그룹_74" data-name="그룹 74">
      <g id="그룹_35" data-name="그룹 35" transform="translate(1325.863 2030)">
        <path id="패스_61" data-name="패스 61" d="M349.914,512.694a34.47,34.47,0,0,0-5.541-3.8,42.329,42.329,0,0,0-3.817-1.882l-8.592,5.214-38.082,23.1L278.614,544.4v25.75h26.508c12.493,0,22.305-.715,29.8-2.5A33.227,33.227,0,0,0,353.3,556.591a32.867,32.867,0,0,0,7.138-20.876C360.441,526.612,356.871,518.94,349.914,512.694Zm-17.308,45.682c-5,5-12.493,6.424-22.486,6.424H293.881V537.1l40.54-24.6c3.751,4.893,5.677,14.03,5.677,22.672C340.1,545.527,337.6,553.2,332.606,558.376Z" transform="translate(-263.652 -455.154)"/>
        <g id="그룹_34" data-name="그룹 34" transform="translate(0 25.027)">
          <path id="패스_62" data-name="패스 62" d="M323.517,497.157c-4.836,2.958-5.854,4.35-5.489,4.947s1.976.175,6.813-2.785c6.986-4.275,5.861-4.945,5.843-4.978C330.317,493.744,328.351,494.2,323.517,497.157Z" transform="translate(-232.624 -490.35)" fill="none"/>
          <path id="패스_63" data-name="패스 63" d="M326.867,492.027Z" transform="translate(-225.601 -491.995)"/>
          <path id="패스_64" data-name="패스 64" d="M327.934,493.4h0Z" transform="translate(-224.759 -490.916)"/>
          <path id="패스_65" data-name="패스 65" d="M372.493,492.054a2.269,2.269,0,0,0-1.384.165l-1.248.547c-7.491,3.477-39.113,23.643-65.312,40.6-.724.469-34.638,22.146-34.3,22.7s34.934-20.009,35.682-20.438c26.982-15.53,59.257-34.441,65.828-39.758.365-.3.869-.717,1.227-1.018a1.627,1.627,0,0,0,.576-1.027C373.72,492.6,373.094,492.182,372.493,492.054Zm-10.028,8.925c-4.836,2.96-6.446,3.382-6.813,2.785s.653-1.989,5.489-4.947,6.8-3.413,7.167-2.815C368.326,496.033,369.451,496.7,362.465,500.979Z" transform="translate(-270.249 -492.009)"/>
        </g>
        <path id="패스_66" data-name="패스 66" d="M353.033,498.535c-3.375-16.02-20.628-20.519-51.658-20.519H278.614V548.04l15.267-9.422,1.8-1.095,7.451-4.52,29.671-18,20.762-12.6A28.587,28.587,0,0,0,353.033,498.535Zm-19.547,14.232-36.4,22.134h0l-3.2,1.966V482.834c2.141-.177,5.888-.177,8.388-.177,9.458,0,15.881.891,19.8,3.033,3.749,1.962,6.782,4.293,8.744,8.041,1.962,3.568,2.856,5.632,2.856,12.234C333.675,507.518,333.607,511.36,333.486,512.766Z" transform="translate(-263.652 -478.016)"/>
      </g>
      <text id="_" data-name="+" transform="translate(720.254 2101)" fill="#1a1818" font-size="31" font-family="NotoSansKR-Regular, Noto Sans KR"><tspan x="0" y="0">+</tspan></text>
      <text id="_2" data-name="+" transform="translate(984.254 2101)" fill="#1a1818" font-size="31" font-family="NotoSansKR-Regular, Noto Sans KR"><tspan x="0" y="0">+</tspan></text>
      <text id="_3" data-name="=" transform="translate(1235.254 2101)" fill="#1a1818" font-size="31" font-family="NotoSansKR-Regular, Noto Sans KR"><tspan x="0" y="0">=</tspan></text>
      <g id="그룹_48" data-name="그룹 48" transform="translate(328.931 1685)">
        <path id="패스_89" data-name="패스 89" d="M236.847,374.721a1.052,1.052,0,0,0,.27.1,8.57,8.57,0,0,1-.867-.035A.879.879,0,0,1,236.847,374.721Z" transform="translate(58.314 34.765)" fill="#1a1818"/>
        <path id="패스_90" data-name="패스 90" d="M169.753,467.007a20.814,20.814,0,0,0,4.889,2.613,21.221,21.221,0,0,0,4.2,1.352,41.16,41.16,0,0,0,15.948-1.15c1.227-.444,2.461-.871,3.692-1.3,1.172-.411,2.349-.809,3.516-1.234l8.234-4.906a28.181,28.181,0,0,0,3.009-2.208c1.979-1.669,4-3.314,5.81-5.133,2.336-2.342,6.072-11.706,19.819-22.827a6.329,6.329,0,0,1,1.355-.789.57.57,0,0,1,.864.583,1.781,1.781,0,0,0,.458,1.561.665.665,0,0,1,.05.556c-.158.541-.341,1.078-.548,1.6a39.6,39.6,0,0,0,.389,4.258,3.127,3.127,0,0,1,.264,2.048c-.723,1.636-2.6,2.52-4,4.774a46.62,46.62,0,0,0-3.417,4.381,14.822,14.822,0,0,0-1.926,4.09c-.213.825-.534,1.625-.805,2.435-.007.02-.006.046-.018.059-.972,1.029-.275,2.175-.306,3.277-.017.616.358,1.306-.27,1.905-.119.114.1.737.347.956,1.907,1.731,8.576,5.37,9.377,4.528.774.915,5.016,1.953,5.782,1.72l.07.273c2.153.218,13.932,2.074,14.466,2.118,7.706.636,31.546-.954,39.055-2.571a7.413,7.413,0,0,0,1.641-.484c1.59-.763,3.149-1.585,4.721-2.384.822-.42,1.651-.829,2.465-1.262a6.227,6.227,0,0,0,2.4-2.331,7.022,7.022,0,0,0,1.073-2.336c.746-3.826.156-4.147-.174-6.1-.226-1.337-2.749-4.381-3.6-5.265A51.814,51.814,0,0,0,301,443.291a1.126,1.126,0,0,1-.4-1.658c.022-.035.07-.059.079-.094.409-1.614,1.086-3.2.5-4.906a1.177,1.177,0,0,1-.1-.58,5.859,5.859,0,0,0-.143-2.656c-.033-.128-.075-.325-.005-.4a3.389,3.389,0,0,0,.688-1.9,1.4,1.4,0,0,1,.69-.8,5.175,5.175,0,0,0,2.316-2,4.387,4.387,0,0,0,.792-3.439,5.206,5.206,0,0,0-2.16-2.846A19.527,19.527,0,0,0,297,419.336c-1.541-.469-3.132-.787-4.686-1.221-.871-.244-1.693-.642-2.564-.884-2.026-.561-4.077-1.051-6.1-1.607-1.21-.33-2.379-.805-3.6-1.078-1.4-.312-2.835-.5-4.262-.691s-2.888-.359-4.337-.471c-.785-.059-1.584.055-2.375.031a57.406,57.406,0,0,1-9.3-.924c-2.283-.44-4.572-.869-6.831-1.4a41.1,41.1,0,0,1-5.2-1.515,15.015,15.015,0,0,1-3.314-1.9,29.787,29.787,0,0,1-2.744-2.413,4.52,4.52,0,0,1-.739-.928,25.754,25.754,0,0,0,12.238,1.051c-.158-.075-.317-.22-.469-.213a31.355,31.355,0,0,1-7.5-.757,11.169,11.169,0,0,1-2.254-.609,3.782,3.782,0,0,1-1.1-.99c-.081-.086-.013-.3-.015-.449a4.267,4.267,0,0,1,.464.042c.163.033.315.114.481.138,2.622.38,5.243.79,7.875,1.111,1.183.145,2.391.117,3.589.152,1,.031,2,.05,3.006.048.392,0,.783-.079,1.176-.119l.018-.18c-.2-.073-.411-.227-.6-.205a12.533,12.533,0,0,1-3.617-.165c-1.2-.194-2.452-.116-3.65-.312-2.652-.435-5.285-.972-7.928-1.454a.562.562,0,0,1-.541-.552,1.023,1.023,0,0,0-.3-.567c-.585-.548-.664-.908-.26-1.718,1.8,1.025,3.882,1.188,5.878,1.577,2.173.425,4.4.624,6.6.922.787.108,1.568.246,2.357.325a20.435,20.435,0,0,0,3.1.094,1.706,1.706,0,0,0-.363-.125c-1.132-.117-2.276-.165-3.395-.354-1.421-.24-2.819-.605-4.233-.893-1.57-.319-3.158-.568-4.719-.926-1.342-.31-2.661-.717-3.981-1.108-.321-.1-.6-.26-.545-.7.022-.183-.238-.4-.369-.6a4.4,4.4,0,0,1-.591-1.161,4.6,4.6,0,0,0,3.341,1.009c-.649-.523-1.588-.262-2.109-1.109.5.062.856.075,1.2.154.491.114.965.312,1.46.407,1.748.339,3.5.677,5.258.961.842.138,1.709.139,2.56.233s1.689.242,2.538.334c.869.1,1.746.152,2.619.226l.044-.183c-.262-.06-.521-.139-.787-.182-1.465-.24-2.938-.444-4.4-.712-1.216-.222-2.419-.515-3.628-.778-1.665-.361-3.338-.691-4.99-1.1a12.8,12.8,0,0,1-2-.785,2.8,2.8,0,0,1-1.286-2.261c2.021.433,4.02.99,6.065,1.264a54.768,54.768,0,0,0,6.4.387c2.091.033,4.187-.1,6.3-.268a1.72,1.72,0,0,0-.381-.106c-1.236-.046-2.476-.049-3.71-.132-3.352-.222-6.712-.4-10.05-.759a12.746,12.746,0,0,1-3.279-1.141c-.286-.117-.462-.475-.677-.734a5.378,5.378,0,0,1-.552-.73,2.281,2.281,0,0,1-.391-.91c-.042-.675.185-.765.866-.574,1.326.372,2.65.776,4.005,1.016a44.032,44.032,0,0,0,4.561.524c1.935.138,3.879.183,5.819.262a7.468,7.468,0,0,0,1.286-.042,3.365,3.365,0,0,0-.55-.165c-1.933-.242-3.868-.462-5.8-.715-1.647-.216-3.281-.528-4.933-.691a14.026,14.026,0,0,1-4.211-1.361,1.819,1.819,0,0,1-.974-1.72c-.068-.594.235-.734.858-.537,1.047.33,2.094.675,3.164.93,1.434.343,2.877.671,4.337.886,1.585.231,3.189.334,4.787.477,1.315.117,2.632.215,3.948.312a2.693,2.693,0,0,0,1.117-.121,1.965,1.965,0,0,0-.438-.132c-.807-.046-1.619-.04-2.421-.119-.633-.062-1.251-.246-1.882-.336-1.847-.264-3.727-.385-5.537-.787-2.305-.514-4.557-1.236-6.824-1.9a2.305,2.305,0,0,1-1.031-2.234c.178-.468.561-.4.9-.288.845.277,1.673.6,2.509.9a2.5,2.5,0,0,0,.431.116c2.608.411,5.208.864,7.825,1.214,1.861.251,3.743.369,5.617.537a5.583,5.583,0,0,0,.679-.017l.018-.2c-1.032-.138-2.063-.273-3.094-.414-2.685-.37-5.39-.647-8.045-1.148a14.155,14.155,0,0,1-4.557-1.342c-.814-.473-1.7-.9-1.984-1.863a1.152,1.152,0,0,1,.051-.838c.077-.13.5-.147.752-.108,2.353.361,4.695.787,7.053,1.1,1.183.16,2.393.121,3.591.2,1.388.094,2.775.224,4.161.326.337.026.677.013,1.174.022-.172-.145-.205-.2-.244-.2-1.607-.216-3.211-.442-4.82-.635-1.276-.152-2.568-.209-3.833-.413-1.539-.246-3.059-.6-4.585-.911a11.385,11.385,0,0,1-1.541-.378,1.844,1.844,0,0,1-1.271-2.017c0-.391.253-.488.664-.4,1.621.358,3.235.761,4.876,1.014,1.709.264,3.446.374,5.172.552,1.216.125,2.43.268,3.648.369a9.6,9.6,0,0,0,1.889-.048c-.635-.106-1.267-.233-1.905-.317-2.751-.361-5.516-.642-8.249-1.093a45.42,45.42,0,0,1-4.744-1.21,2.072,2.072,0,0,1-1.137-2.21.659.659,0,0,1,.543-.3c1.9.393,3.783.866,5.693,1.227,1.55.293,3.127.469,4.693.686.537.075,1.078.121,1.619.18l.046-.229q-4.154-.889-8.31-1.775l.042-.183a11.581,11.581,0,0,1,3.952-.081c1.3.1,2.6.255,3.906.385l.051-.238a3.479,3.479,0,0,0-.713-.24,11.892,11.892,0,0,1-2.357-.222c-1.979-.646-4.081-.411-6.074-.864-.928-.213-1.843-.477-2.758-.741a.657.657,0,0,1-.523-.928c.15-.458.182-1.014.977-.719a.568.568,0,0,0,.354-.026,4.962,4.962,0,0,0,1.033.616,33.525,33.525,0,0,0,6.316,1.218c2.621.189,5.223.609,7.838.889,1.445.156,2.9.231,4.354.339.084.007.209.028.251-.015.812-.822,1.861-.405,2.777-.381,2.241.059,4.475.35,6.716.407a54.968,54.968,0,0,0,10.974-.734c1.449-.255,2.9-.523,4.35-.746,1.17-.18,2.371-.222,3.521-.475,1.385-.306,2.74-.741,4.088-1.179,1-.325,1.97-.743,2.989-1.135a.7.7,0,0,1-.174.985,9.382,9.382,0,0,1-4.554,2.118c-.178.035-.363.039-.651.066.156.1.24.205.306.2.941-.139,1.887-.257,2.815-.455.57-.123,1.108-.385,1.669-.557a.466.466,0,0,1,.381.108,1.5,1.5,0,0,1-.079,1.762c-.07.073-.167.152-.182.24-.185,1.036-1.078,1.458-1.926,1.872a7.555,7.555,0,0,1-3.668,1.106l-.029.246c.255.066.536.233.761.183,1.053-.231,2.105-.475,3.125-.805.748-.242,1.445-.624,2.32-1.01-.651,1.245-1.847,1.783-2.909,2.522a9.248,9.248,0,0,0,1.592-.209c.807-.249,1.41.264,1.379,1.209a2.659,2.659,0,0,1-1.48,2.124c-.877.58-1.827,1.062-2.74,1.634a30.84,30.84,0,0,0,3.938-1.143c.471.638.44,1.077-.255,1.359a19.9,19.9,0,0,1-2.773.856c-.712.174-1.458.227-2.228.413a3.389,3.389,0,0,0,.847.2c.908-.022,1.812-.1,2.718-.15.512-.031,1.023-.075,1.537-.09a.422.422,0,0,1,.31.141,1.317,1.317,0,0,1-.337,1.548c-.492.383-.952.805-1.456,1.174a8.572,8.572,0,0,1-.928.49c-.2.108-.38.24-.57.363l.033.18a2.3,2.3,0,0,0,.565-.026c.812-.244,1.616-.514,2.424-.768a1.755,1.755,0,0,1,.332-.035c.673,1.41-1.154,1.579-1.414,2.406a20.343,20.343,0,0,0-2,.7,9.523,9.523,0,0,1-3.347,1.025c-.3.022-.594-.005-.891-.011l-.009.229c.425.007.855.046,1.276.013a11.469,11.469,0,0,0,3.576-.844c.79-.33,1.614-.594,2.432-.86.145-.046.477.016.492.081.084.337.26.787.1,1.021a11.8,11.8,0,0,1-1.689,2.006,3.781,3.781,0,0,1-1.364.658,13.012,13.012,0,0,1-2.27.635c-1.19.172-2.4.218-3.6.321a.756.756,0,0,0-.4.123,17.643,17.643,0,0,0,8.607-1.082c-.064.174-.075.414-.209.524a12.454,12.454,0,0,1-1.573,1.154c-1.337.779-2.705,1.513-4.06,2.265l.066.161c.442-.139.9-.253,1.324-.422,1.353-.534,2.692-1.1,4.048-1.625a1.7,1.7,0,0,1,.625.027l.114.211a5.121,5.121,0,0,1-1.137,1.053c-1.311.631-2.679,1.165-4.033,1.718a2.042,2.042,0,0,1-.543.013,3.366,3.366,0,0,0-.4.073l.013.218c.482.007.97.051,1.447.011a10.188,10.188,0,0,0,1.427-.255,8.369,8.369,0,0,0,3.791-1.751,1,1,0,0,1,.794-.139c.24.072.589.361.578.537a2.513,2.513,0,0,1-1.014,2.3,3.3,3.3,0,0,0-.792.928,4.917,4.917,0,0,1-2.668,1.581c-.649.213-7.954,2.336-9.153,2.465-1.229.13-2.478.106-3.719.127-.787.013-1.573-.04-2.358-.022-1.451.037-2.9.138-4.348.152-1.839.018-3.684-.088-5.522-.016-1.331.051-2.654.336-3.985.455-.664.06-1.346-.059-2.016-.031a23.392,23.392,0,0,0-5.505.95,16.45,16.45,0,0,0-2.773,1.361c-.957.486-1.911.981-2.865,1.473-.057.029-.139.046-.163.09-.205.37-.649.831-.543,1.1.2.51.785.218,1.179.073a12.621,12.621,0,0,0,1.363-.664,29.7,29.7,0,0,1,3.521-1.773,44,44,0,0,1,4.68-1.207,17.05,17.05,0,0,1,2.371-.411c.646-.057,1.308.082,1.957.051,1.465-.073,2.925-.229,4.39-.29,1.078-.044,2.162.005,3.242.018.149,0,.3.05.446.046,2.239-.059,4.48-.11,6.718-.193a37.791,37.791,0,0,0,4.856-.284c.292-.048,10.01-2.736,10.38-2.817a1.559,1.559,0,0,1-1.08,2.155c-1.253.376-5.724,1.128-5.76,1.154a25.027,25.027,0,0,0,6.521-.2,1.29,1.29,0,0,1-1.276,1.315,13.889,13.889,0,0,1-4.3.275.977.977,0,0,0-.556.112,8.73,8.73,0,0,0,3.483.58,5.3,5.3,0,0,0,3.486-.911c-.086,1.073-.88,1.606-3.184,2.239.488.578.574.572,3.549-.248.367.4.249.73-.193.987-.6.345-1.209.668-1.808,1.009-.216.125-.416.277-.657.438l-.193-.139c-.033.053-.09.1-.094.15-.024.317-.132.449-.339.433a9.811,9.811,0,0,0,3.591-.706c-1.089,1.7-2.888,1.957-4.708,2.177l0,.18c.187.072.389.224.561.2,1.111-.161,2.215-.359,3.323-.548.348-.06.7-.127,1.044-.189a2.154,2.154,0,0,1-1.713,2.287,28.214,28.214,0,0,1-3.527.851,33.23,33.23,0,0,1-3.574.37c-.2.013-1.735-.134-2.5-.145a19.079,19.079,0,0,0,11.308-.6,1.76,1.76,0,0,1-.712,1.484c-1.269.4-2.545.794-3.842,1.108-.482.117-1.029.005-1.548.108a8.72,8.72,0,0,0,3.286.182,11.643,11.643,0,0,0,2.872-.7c.112-.046.3.059.449.094-.084.249-.09.633-.264.723a18.322,18.322,0,0,1-2.049.831c-.792.288-1.6.547-2.393.823-.042.015-.057.1-.128.231a6.568,6.568,0,0,0,1.137.007c1.113-.187,2.223-.4,3.323-.646.468-.1.735.044.811.435.1.482.094.981.165,1.469a1.7,1.7,0,0,0,.215.453,2.11,2.11,0,0,0,.389-.242c.642-.638.255-1.35.169-2.05-.079-.64-.061-1.291-.134-1.933-.055-.486-.229-.963-.273-1.449a7.257,7.257,0,0,1-.163-2.96,1.019,1.019,0,0,0-.064-.53,6.742,6.742,0,0,1,.253-2.9.529.529,0,0,1,.156-.315c.392-.306.237-.567-.007-.877a1.329,1.329,0,0,1-.152-.572c-.064-.352-.114-.708-.174-1.062-.1-.539-.205-1.076-.288-1.618-.092-.59-.176-1.183-.235-1.777-.046-.449-.031-.9-.077-1.353a2.912,2.912,0,0,0-.194-.877c-.325-.719-.334-.959.343-1.427,1.328-.915,1.885-3.6.956-4.81a2.615,2.615,0,0,0-1.042-.979.791.791,0,0,1-.391-.607c0-1,.084-1.993.106-2.991.013-.576-.042-1.154-.051-1.729-.013-.77.022-1.542-.02-2.309-.062-1.143-.193-2.281-.255-3.424-.018-.35.143-.71.134-1.062-.013-.484-.154-.966-.163-1.452-.009-.627.083-1.256.081-1.883,0-.569-.066-1.137-.114-1.706-.017-.194-.143-.414-.081-.578a5,5,0,0,0-.005-2.615,3.1,3.1,0,0,1,0-.651c.006-.1.084-.2.077-.29-.1-1.434.387-2.879-.134-4.312-.158-.438-.216-.963.381-1.249a7.21,7.21,0,0,0,2.322-2.373c.787-.97,1.542-1.962,2.314-2.942.114-.145.266-.268.363-.422.82-1.3,1.632-2.606,2.448-3.91a5.593,5.593,0,0,0,.728-1.183c1.552-5.069.7-10.751-.249-12.093-5.144-7.294-23.837-9.276-33.2-9.531-8.322-.227-27.073,1.181-34.267,4.37a17.718,17.718,0,0,0-3.833,2.384c-3.3,2.626-4.526,2.568-5.24,5.518a14.977,14.977,0,0,0-.013,5.241,4.815,4.815,0,0,0,.924,1.8c.447.708,1.007,1.355,1.443,2.067.594.968,1.106,1.979,1.674,2.962a18.682,18.682,0,0,0,1.337,2.162c.928,1.192,1.931,2.333,2.927,3.477,1.071,1.232,2.17,2.443,3.343,3.758l-1.192.081a4.966,4.966,0,0,0-.5,1.256,5.891,5.891,0,0,0,.18,1.436c.035.224.218.539.121.653-.5.572-.284,1.254-.26,1.83a17.877,17.877,0,0,1-.35,2.764,8.381,8.381,0,0,0,.189,1.419,2.408,2.408,0,0,1-.119.825c-.158.528-.367,1.042-.525,1.568a5.132,5.132,0,0,0-.116.77c-.022.158-.125.38-.049.464.438.486.2.937-.033,1.392-.255.51.033,1.161-.5,1.612-.07.059.073.33.108.506q.149.779.286,1.559c.011.059-.017.125,0,.18a4.35,4.35,0,0,1-.2,3.3,1.126,1.126,0,0,0,.092.82.939.939,0,0,1-.121,1.119c-.088.1-.049.33-.015.492.072.334.187.658.271.99.106.424.226.849.292,1.282a2.109,2.109,0,0,1-.077.651c-.039.207-.119.409-.141.616-.027.264-.015.532-.018.812-1.02-.161-1.163-.094-1.447.77a8.037,8.037,0,0,0-.414,4.431,16.79,16.79,0,0,0,.842,2.2,2.018,2.018,0,0,1,.209.5,3.847,3.847,0,0,0,1.575,2.375,8.367,8.367,0,0,1,1,1.412,3.117,3.117,0,0,0-.607.114,1.246,1.246,0,0,0-.82,1.2c-.026.5.1,1,.044,1.491a3.619,3.619,0,0,1-.405,1.434c-.5.842-.116,1.493.347,2.162a2.986,2.986,0,0,0,.2.231l0,0c-2.4,2.683-3.8,7.457-1.121,10.2.475.486.869,1.043,1.3,1.568a1.683,1.683,0,0,0,.242.279,1.226,1.226,0,0,1,.425,1.729c-.3.774-.741,1.539-.325,2.421.04.086-.308.455-.528.51a3.065,3.065,0,0,0-2.019,1.012c-.49-.1-1.4.981-1.588,1.365-.543.2-4.26,3.58-4.744,3.987-.246.209-.579.334-.809.556-4.057,3.937-3.127,3.046-8.416,10.62-.948,1.357-1.955,2.678-2.94,4.013-.706.956-1.377,1.937-2.144,2.85a14.9,14.9,0,0,1-1.751,1.662c-10.292,8.854-19.486,12.52-25.972,13.289-9.85,1.922-17.386-.768-21.6-5.489,0,0-1.2-2.624-2.069-3.253C165.667,463.27,168.689,466.248,169.753,467.007ZM302.065,353.648c-.62.238-1.168.644-1.792.867-.974.35-1.992.59-2.977.915-.961.315-1.885.743-2.863,1a27.934,27.934,0,0,1-3.176.592c-1.986.282-3.978.532-5.971.778-2.026.251-4.058.471-6.085.723-.95.117-1.889.341-2.843.4-1.491.1-2.989.079-4.482.132-.844.031-1.684.128-2.527.161q-2.1.08-4.2.117c-1.361.022-2.729.1-4.082,0-2.371-.167-4.735-.435-7.1-.69-.966-.1-1.927-.264-2.885-.433-1.988-.352-3.983-.688-5.955-1.106a22.421,22.421,0,0,1-2.888-.9c-.891-.321-1.753-.715-2.628-1.076-1-.413-2.01-.794-2.982-1.254a8.661,8.661,0,0,1-1.2-.869,27.115,27.115,0,0,1-2.228-1.586,3,3,0,0,1-.994-1.436,13.137,13.137,0,0,1-.248-2.953,14.336,14.336,0,0,1,.339-2.14,12.832,12.832,0,0,0,1.764,2.146c1.293,1.014,2.182,2.474,3.846,3.079.068.026.092.141.158.183a6.311,6.311,0,0,0,1.108.669c1.038.389,2.113.7,3.153,1.077.944.347,1.74,1.042,2.837,1.025a1.1,1.1,0,0,1,.354.136,16.885,16.885,0,0,0,1.971.713c1.465.341,2.953.6,4.431.9,1.264.255,2.518.563,3.793.754,1.2.18,2.463.092,3.624.385,1.539.389,2.943-.218,4.416-.218a.24.24,0,0,0,.121-.037c1.071-.646,2.252-.326,3.391-.321.979,0,1.964.178,2.932.108.427-.031,1.115.231,1.337-.4.138-.389.387-.4.735-.407.789-.02,1.577-.072,2.364-.119,1.253-.075,2.507-.13,3.752-.259a3.751,3.751,0,0,0,1.161-.462c.018-.009-.127-.457-.191-.455-.91.016-1.819.11-2.729.117a21.6,21.6,0,0,1-2.562.292c-.242-.026-.479-.121-.719-.125-1.023-.009-2.047.024-3.07,0-.624-.015-1.245-.138-1.869-.156-1.064-.029-2.131.026-3.191-.042a4.465,4.465,0,0,1-1.2-.444,1.337,1.337,0,0,0-.405-.141c-1.3-.064-2.6-.1-3.89-.174-.77-.044-1.647.249-2.261-.376a2.436,2.436,0,0,0-1.436-.528c-.31-.064-.646-.009-.961-.053-2.14-.293-4.279-.6-6.417-.9a21.661,21.661,0,0,1-2.6-.374,27.125,27.125,0,0,1-4.713-1.81,2.5,2.5,0,0,1-.688-.314c-.532-.543-1.174-.424-1.806-.407l-.128.18a3.29,3.29,0,0,0,.723.7c.822.411,1.706.712,2.52,1.132A14.1,14.1,0,0,1,243.484,351l-.057.213a3.642,3.642,0,0,1-.941-.028c-1.016-.3-2.037-.612-3.013-1.012a7.95,7.95,0,0,1-1.841-1.064,16.777,16.777,0,0,1-1.85-1.739c-.682-.719-1.315-1.478-1.951-2.232-.1-.117-.1-.3-.163-.451-.088-.2-.139-.464-.3-.583-.473-.339-.275-.625.04-.884.33-.275.834-.437,1.033-.767.482-.8,1.43-1,2.1-1.557a18.2,18.2,0,0,1,2.676-1.693,17.862,17.862,0,0,1,2.745-1.436,35.214,35.214,0,0,1,3.451-.882c.664-.169,1.315-.385,1.984-.534.921-.2,1.856-.35,2.778-.546.776-.167,1.533-.414,2.314-.543.956-.158,1.926-.244,2.892-.337.646-.062,1.295-.084,1.942-.127.71-.046,1.419-.106,2.129-.139.526-.026,1.058.011,1.583-.037.943-.088,1.88-.248,2.826-.325,1.344-.108,2.692-.18,4.042-.246.864-.044,1.733-.079,2.6-.06q2.594.05,5.186.169c.926.042,1.847.169,2.773.209.723.033,1.451-.048,2.171-.005,1.238.073,2.472.205,3.71.306.523.042,1.056.026,1.572.1,1.8.264,3.609.532,5.4.847a13.642,13.642,0,0,1,3.959.968,4.584,4.584,0,0,0,.928.5,19.688,19.688,0,0,1,5.379,2.212c.35.2.7.409,1.042.624a21.852,21.852,0,0,1,3.329,2.164,4.317,4.317,0,0,1,1.335,3.49c-.053.849-.229,1.695-.227,2.54a4.943,4.943,0,0,1-1.889,3.554A9.275,9.275,0,0,1,302.065,353.648Zm-55.814-2.2c-.519.337-1.68.106-1.849-.3C245,351.242,245.584,351.336,246.251,351.446Zm48.909,13.1c.591-.127,1.157-.246,1.726-.367l.02.094-1.157.614Zm-54.609-1.539c-.73-1.154-1.878-2.067-2.694-3.182-1.047-1.431-1.944-2.956-2.9-4.44,1.839.84,3.835,1.192,5.647,2.082a34.409,34.409,0,0,0,7.739,2.689c.855.187,1.7.433,2.56.569,1.352.211,2.718.337,4.075.524,1.544.215,3.077.576,4.629.653,2.092.1,4.2,0,6.294-.02a.541.541,0,0,0,.359-.1c.514-.561,1.185-.409,1.828-.37,1.911.116,3.826.264,5.617-.6a.683.683,0,0,1,.185-.044c1.2-.22,2.406-.453,3.615-.655.9-.148,1.806-.27,2.714-.383.611-.075,1.234-.075,1.838-.18.847-.147,1.678-.365,2.52-.539a1,1,0,0,1,.341.057,2.309,2.309,0,0,1-.07.315,3.465,3.465,0,0,1-.218.381l.58-.13a26.99,26.99,0,0,1,3.061-.671c2.082-.224,4.183-.275,6.265-.5a46.2,46.2,0,0,0,9.454-2.19c.028-.007.073.033.136.062-.224,1.119-1.194,1.663-2.078,2.2-1.621.983-3.6,1.01-5.373,1.625-.554.193-1.135.315-1.7.471a.857.857,0,0,0,.657.262c1.744-.31,3.481-.657,5.223-.974a3.947,3.947,0,0,1,.75,0l.094.169a14.044,14.044,0,0,1-1.108,1.2,15.66,15.66,0,0,1-5.922,2.742c-.172.053-.3.226-.513.391l.686.22c-.946.361-1.845.741-2.771,1.047s-1.865.534-2.9.822a5.784,5.784,0,0,0-3.037.624,18.913,18.913,0,0,0,8.146-1.032l.09.3a16.048,16.048,0,0,1-1.707.589c-1.348.306-2.716.535-4.068.827-1.172.253-2.32.616-3.5.809-2.388.389-4.781.783-7.191,1.005-1.832.167-3.692.092-5.54.081-1.108-.007-2.214-.106-3.321-.156-.724-.031-1.456.006-2.175-.077-2.457-.279-4.917-.567-7.365-.913-1.6-.227-3.182-.53-4.759-.862-1.02-.216-2.016-.537-3.019-.827a2.366,2.366,0,0,1-.473-.264,17.442,17.442,0,0,1,2.63.215c.919.15,1.817.413,2.738.55,2.186.328,4.378.646,6.575.9,1.394.16,2.8.193,4.207.292a15.033,15.033,0,0,1,2.081.2,1.292,1.292,0,0,0,1.581-.521c-.2-.427-.572-.438-1-.424-1.423.042-2.85.119-4.271.062-1.337-.055-2.668-.235-4-.411-1.713-.226-3.424-.475-5.126-.763-1.773-.3-3.536-.667-5.306-.988-.836-.152-1.68-.27-2.52-.4-.138-.022-.277-.046-.414-.07,0,.145,0,.288.007.431a2.513,2.513,0,0,0,.077.334,8.139,8.139,0,0,1-1.137-.262c-1.238-.488-2.457-1.02-3.7-1.507a10.306,10.306,0,0,0-1.231-.312,3.147,3.147,0,0,0,2.006,1.623c1.52.614,3.116,1.058,4.677,1.583.392.132.768.3,1.152.458l-.033.18a3.26,3.26,0,0,1-.805-.022,14.506,14.506,0,0,0-2.868-.814,5.8,5.8,0,0,1-3.261-1.348A10.425,10.425,0,0,1,240.552,363.007Zm.026,40.4c-1.507-2.115-1.869-6.727-.539-7.941.114.409.24.783.319,1.165a2.867,2.867,0,0,1,.039.752,8.465,8.465,0,0,0-.139,2.613,7.9,7.9,0,0,1,.134,2.094A9.569,9.569,0,0,0,240.577,403.4Zm-.062,12.986c.185.985.413,1.966.534,2.956a5.562,5.562,0,0,1-.143,1.434c-.027.194-.176.389-.15.569.1.735.251,1.465.37,2.2a1.486,1.486,0,0,1-.046.4l-.2.055a19.666,19.666,0,0,1-1.177-1.607,2.75,2.75,0,0,1-.539-1.438,25.066,25.066,0,0,1,.6-3.246,13.456,13.456,0,0,1,.44-1.348Zm1.1-5.117a5.531,5.531,0,0,1,2.485.6l.033.205a13.675,13.675,0,0,0-1.764.574c-.605.288-.943.306-1.28-.352C240.77,411.679,240.863,411.342,241.615,411.274Zm10.079,57.78c-1.992-.413-3.992-.79-5.99-1.188-.464-.094-.922-.207-1.386-.314l.668-1.117,3.068.959.1-.185-1.478-.922.075-.172c.477.1.956.211,1.434.314,1.209.255,2.415.521,3.629.754.933.18,1.856.605,2.843.174.11-.627-.158-.818-.805-.922-1.634-.268-3.25-.629-4.873-.959-.04-.007-.064-.088-.116-.165.565-.242,1.108-.48,1.654-.706a.521.521,0,0,1,.253.011q2.605.457,5.21.915a31.287,31.287,0,0,0,3.086.528c1.007.073,2.034-.128,3.041-.07,1.408.083,2.8.326,4.211.442,1.2.1,2.413.15,3.62.156.8,0,1.6-.13,2.4-.174,1.342-.077,2.689-.1,4.029-.2,1.04-.077,2.083-.185,3.11-.359,1.594-.271,3.176-.6,4.757-.93.451-.094.875-.325,1.328-.389.952-.132,1.922-.15,2.87-.3,1.436-.224,2.859-.514,4.284-.785,2.054-.391,4.15-.657,6.149-1.223,2.162-.613,4.224-1.531,6.345-2.278a8.92,8.92,0,0,0,4.638-3.118,7.577,7.577,0,0,1,.668-.708c.061.664.149,1.181.143,1.7a4.872,4.872,0,0,1-.169,1.6,4.377,4.377,0,0,1-2.067,2.3A24.578,24.578,0,0,1,302,464.39c-1.036.315-2.094.572-3.129.895-.194.061-.323.306-.482.466a40.79,40.79,0,0,0,10.089-2.353,6.1,6.1,0,0,1-.992.911,11.045,11.045,0,0,1-2.5,1.861c-1.867.721-3.6,1.788-5.66,2.063-1.264.167-2.505.471-3.765.679-1.973.321-3.954.616-5.933.915-1.021.154-2.041.358-3.07.429q-3.827.267-7.664.42c-1,.042-2.012-.048-3.019-.079-.106,0-.213-.016-.319-.015-1.465,0-2.931.024-4.4.011-.812-.007-1.623-.09-2.435-.1-.994-.007-1.99.068-2.982.035-.625-.02-1.243-.2-1.871-.257-1.863-.165-3.747-.039-5.6-.374a2.715,2.715,0,0,0-1.383-.059,3.85,3.85,0,0,1-2.41-.123C253.543,469.542,252.63,469.248,251.695,469.054Zm-6.382.255q.787.132,1.577.266l-.092.312Zm-3.462-.878c.308-.09.442-.178.539-.152q1.3.36,2.591.765c.1.031.165.154.248.24A6.727,6.727,0,0,1,241.85,468.43Zm-8.357-10.125a6.435,6.435,0,0,0,.908,1.216c.057.075.042.2.09.281a3.472,3.472,0,0,0,.611,1c.855.726,1.775,1.383,2.665,2.076a.957.957,0,0,1,.174.281l-.1.128c-.754-.4-1.509-.809-2.287-1.223l-.514.407,3.343,2.494a.574.574,0,0,1-.517.11c-.873-.389-1.753-.768-2.6-1.212-1.062-.559-2.1-1.223-2.325-2.432a14,14,0,0,1-.194-3.132,7,7,0,0,1,.547-1.762l.2.059a1.581,1.581,0,0,0-.088.38A3.762,3.762,0,0,0,233.493,458.305Zm8.73-14.833a4.457,4.457,0,0,0,1.044.657c1.682.44,3.189,1.276,4.891,1.711a22.989,22.989,0,0,0,4.92.871c1.656.059,3.3.354,4.955.5,1.375.119,2.756.189,4.137.244.42.016.849-.139,1.269-.123,1.152.046,2.3.15,3.453.213.66.037,1.322.033,1.984.053,1.062.035,2.129.15,3.186.1,1.575-.079,3.145-.279,4.717-.422,1.018-.094,2.034-.194,3.054-.264.79-.055,1.592-.005,2.371-.116,1.407-.2,2.8-.479,4.2-.721,1.225-.213,2.45-.416,3.677-.627a25.067,25.067,0,0,1,3.285-.539,16.5,16.5,0,0,0,5.394-1.19,1.415,1.415,0,0,1,1.592.222q1.334,1.166,2.67,2.329c.526.46,1.053.921,1.574,1.385.361.323.71.658,1.069.983.339.3.712.581,1.02.911a.511.511,0,0,1,.055.51c-.347.332-.121.594.117.767a4.723,4.723,0,0,1,1.5,2.248,1.853,1.853,0,0,1-.1,1.772,5.876,5.876,0,0,1-1.308,1.678,52.584,52.584,0,0,1-4.46,2.953,12.1,12.1,0,0,1-2.694,1.119c-1.166.35-2.377.581-3.576.831-1.271.264-2.549.5-3.827.73-1.051.191-2.1.365-3.156.537-1.034.171-2.065.359-3.1.484-1.585.189-3.173.343-4.763.482-1.949.169-3.9.339-5.852.448-1.552.086-3.109.1-4.662.1-1.212,0-2.423-.062-3.633-.094a1.529,1.529,0,0,0-.568.042,5.258,5.258,0,0,1-2.9.218c-1.225-.227-2.478-.031-3.69-.315-.218-.05-.482.094-.713.066-.959-.11-1.915-.251-2.872-.382a3.45,3.45,0,0,1-.367-.051c-.521-.121-1.038-.253-1.559-.374-.585-.138-1.172-.257-1.755-.4-1.047-.255-2.091-.523-3.138-.783-.739-.183-1.478-.363-2.217-.548-.614-.154-1.223-.325-1.841-.468-.735-.172-1.489-.286-2.212-.5a20.226,20.226,0,0,1-2.131-.776,38.94,38.94,0,0,1-3.873-1.7,8.264,8.264,0,0,1-2.274-1.869c-.484-.572-1.159-1.21-.9-2.094a6.533,6.533,0,0,1,.669-1.663c.647-1.023,1.359-2.015,2.1-2.982q2.08-2.712,4.238-5.37A5.481,5.481,0,0,1,242.222,443.473Zm.356-26.592c.037-.128-.193-.438-.354-.48-.537-.141-1.1-.2-1.74-.3a2.206,2.206,0,0,1,.143-.46,5.017,5.017,0,0,1,2.619-2.019,2.262,2.262,0,0,1,2.076.15,2.707,2.707,0,0,0,.767.286c1.1.182,2.2.389,3.318.486,2.632.229,5.269.4,7.9.587.086.007.183-.112.275-.172l-.009-.191c-1.032-.147-2.063-.319-3.1-.433-.776-.086-1.574-.031-2.342-.152-1.955-.308-3.9-.675-5.847-1.036a3.538,3.538,0,0,1-.7-.293,5.454,5.454,0,0,0,.811-1.135,1.038,1.038,0,0,0-.268-.816c-.253-.315-.534-.11-.745.121-.227.251-.442.512-.6.7-.992-.537-1.929-1-2.8-1.544a1.637,1.637,0,0,1-.592-.88c-.259-.833.29-1.427.847-2.067a9.22,9.22,0,0,0,.889.723,24.372,24.372,0,0,0,5.517,2.885c.546.172,1.071.418,1.625.565.976.259,1.972.451,2.951.7,1.005.253,1.99.6,3.006.794,2.2.429,4.414.776,6.615,1.185a42.454,42.454,0,0,0,7.994.587,40.834,40.834,0,0,1,6.477.539,35.424,35.424,0,0,1,5.207,1.229c2.665.838,5.4,1.491,8.106,2.2a10.562,10.562,0,0,1,1.746.312,22.374,22.374,0,0,0,3.745,1.333A26.359,26.359,0,0,1,301.3,422.2c1.447.745,2.665,1.779,2.538,3.688-.119,1.772-1.44,2.654-2.612,3.739a.914.914,0,0,1-.005-.7,2.814,2.814,0,0,0,.24-2.414,1.163,1.163,0,0,1,.391-1.4c.4-.286.286-.554-.046-.895-.44-.455-.743-1.021-1.137-1.518-.185-.235-.458-.605-.664-.591a20,20,0,0,0-2.193.4c-1.018.191-2.038.369-3.054.563-.444.086-.88.2-1.3.293,1.971-.037,3.936-.072,5.9-.116.642-.015.812.484,1.012.864a.744.744,0,0,1-.3,1,6.555,6.555,0,0,1-3.749,1.122c.136.117.271.321.407.321.638,0,1.278-.11,1.915-.086.515.018,1.119-.381,1.524.141a5.236,5.236,0,0,0-.18.794,1.443,1.443,0,0,1-1.176,1.408c-1.027.273-2.049.561-3.088.776A13.377,13.377,0,0,1,294,429.7a2.649,2.649,0,0,0-.394.083l-.016.149a4.032,4.032,0,0,0,.933.172,22.111,22.111,0,0,0,5.016-.383c.321-.094.526.031.55.389.011.191.145.372.172.563.079.541.178,1.166-.4,1.471a4.244,4.244,0,0,1-1.8.512c-1.225.031-2.452-.1-3.681-.149a2.031,2.031,0,0,0-.554.145l.005.249,6.039.673c-.156.315-.369.541-.343.737a1.112,1.112,0,0,1-.7,1.126,5.629,5.629,0,0,1-1.5.636,11.222,11.222,0,0,1-3.679.539,1.667,1.667,0,0,0-.526.13l.046.235c1.96-.077,3.919-.152,5.733-.222l.8.475a3.074,3.074,0,0,1-1.8,1.207c-.706.163-1.4.365-2.113.5s-1.41.2-2.116.3l.026.163a10.851,10.851,0,0,0,4.528-.246,2.535,2.535,0,0,1,.981-.084c.15.02.319.259.38.429.031.09-.127.317-.248.361a18.148,18.148,0,0,1-3.89.818c-.9.115-1.8.319-2.7.482l.037.246q3.469-.231,6.94-.466a4.791,4.791,0,0,1-2.377,1.975,9.112,9.112,0,0,1-2.241.633c-.862.205-1.735.372-2.6.557-.633.136-1.207.525-1.915.349a1.242,1.242,0,0,0-.5.086c-.616.13-1.229.288-1.85.391-1.348.224-2.7.422-4.053.631-.781.121-1.555.288-2.342.361-.932.086-1.874.066-2.806.141-1.733.138-3.459.348-5.192.46-1.464.1-2.94.028-4.4.148a32.775,32.775,0,0,1-5.4-.123,5,5,0,0,0-1.2.193c-.315-.029-.649-.05-.979-.094-.84-.108-1.673-.271-2.516-.33-1.407-.1-2.819-.117-4.227-.193-.748-.04-1.495-.182-2.243-.183a8.25,8.25,0,0,1-2.824-.414c-1.137-.414-2.3-.779-3.411-1.236a5.265,5.265,0,0,1-2.421-1.365,16.752,16.752,0,0,1,1.929.282c.811.16,1.614.354,2.428.5,1.084.194,2.173.372,3.266.523,1.757.244,3.517.468,5.278.688,1.271.159,2.542.328,3.818.444a18.56,18.56,0,0,0,3.039.134,7.693,7.693,0,0,1,2.083-.026,12.371,12.371,0,0,0,1.717.125c.763.039,1.526.068,2.289.1,1.15.042,2.3.127,3.451.1a9.23,9.23,0,0,0,1.735-.37c-.8-.616-1.6-.326-2.4-.312-1.053.02-2.109-.079-3.164-.13-.816-.039-1.632-.086-2.448-.123-.249-.011-.5.024-.752.007a13.837,13.837,0,0,0-2.153-.149,8.35,8.35,0,0,1-2.793.136,16.989,16.989,0,0,0-1.7-.3c-.7-.1-1.4-.176-2.1-.246a3.258,3.258,0,0,0-1.385-.053,3.315,3.315,0,0,1-2.107-.081c-1.48-.3-2.964-.574-4.442-.875-1.157-.237-2.309-.5-3.459-.752a6.209,6.209,0,0,1-1.027-.286c-.754-.315-1.64-.413-2.122-.965.171-.374.435-.671.38-.906-.061-.26-.409-.462-.756-.814,4.988,1.964,10.138,2.546,15.258,3.261a75.239,75.239,0,0,1-15.583-4.44c.237-.437.425-.783.622-1.144,1.676.46,3.349,1.042,5.076,1.363a39.06,39.06,0,0,0,5.3.539c1.707.081,3.424-.007,5.135-.022v-.215c-.68-.009-1.368.026-2.043-.039-1.96-.185-3.93-.336-5.872-.638-1.618-.253-3.209-.668-4.794-1.077-1.168-.3-2.309-.7-3.451-1.08a.5.5,0,0,1-.266-.387,1.6,1.6,0,0,1,1.579-1.247,8.2,8.2,0,0,1,1.009.165c1.379.317,2.742.717,4.136.95,1.317.218,2.667.264,4,.385,2.4.216,4.77.746,7.217.464,1.119-.128,2.267-.037,3.4-.059,1.027-.02,2.06-.009,3.079-.1,1-.088,1.984-.27,2.965-.455.185-.035.323-.282.484-.433a3.1,3.1,0,0,0-.752-.114c-.378.035-.743.2-1.119.218-1.772.077-3.545.119-5.318.182-.339.011-.679.084-1.016.081-1.647-.015-3.3.017-4.939-.09-1.4-.092-2.795-.336-4.189-.534-.7-.1-1.386-.248-2.08-.372-1.957-.358-3.915-.7-5.867-1.08-.561-.108-1.095-.336-1.656-.457-.99-.213-1.265-.767-.759-1.645.264.064.53.143.8.191,1.3.227,2.608.458,3.917.666.589.094,1.183.158,1.779.205,1.4.112,2.822.088,4.194.332a42.264,42.264,0,0,0,9.128.506c.248-.009.484-.242.724-.385-.633-.029-1.265-.051-1.9-.094-1.856-.123-3.716-.229-5.568-.393-.974-.086-1.937-.271-2.9-.418-3.035-.464-6.153-.411-9.116-1.344a1.954,1.954,0,0,1-1.6-2.307c.141-.805.745-1.02,1.57-.669a11.472,11.472,0,0,0,2.234.693c1.52.3,3.063.517,4.59.792,1.636.293,3.255.679,4.9.9a30.415,30.415,0,0,0,3.838.218c1.075.009,2.151-.092,3.226-.158.392-.024.781-.083,1.364-.147a2.21,2.21,0,0,0-.536-.235c-.939-.042-1.88-.116-2.817-.086a29.132,29.132,0,0,1-6.633-.512c-.4-.077-.807-.112-1.2-.207-1.009-.248-2-.58-3.017-.77-2.313-.433-4.673-.721-6.69-1.984a1.886,1.886,0,0,1-.756-1.02c-.2-.748-.017-.847.783-.622q2.9.811,5.8,1.6c.367.1.752.141,1.128.209,1.152.209,2.3.449,3.457.616.988.141,1.993.191,2.989.292,1.786.182,3.573.389,5.362.55.682.062,1.374.029,2.063.04a2.918,2.918,0,0,0-.869-.3c-1.641-.251-3.285-.486-4.926-.726-1.9-.277-3.8-.53-5.7-.838-1.058-.172-2.105-.422-3.147-.668-.992-.235-1.96-.563-2.962-.757a7.927,7.927,0,0,1-3.255-1.265,2.021,2.021,0,0,1-.838-1.355,2.593,2.593,0,0,1,.182-.924,2.294,2.294,0,0,1,.754.165,9.5,9.5,0,0,0,3.728,1.218c2.122.35,4.22.877,6.355,1.091,2.379.238,4.788.253,7.185.288,1.515.02,3.033-.112,4.55-.147.462-.011.926.1,1.39.114,1.009.037,2.021.053,3.03.064a1.426,1.426,0,0,0,.387-.119l.024-.16a3.586,3.586,0,0,0-.851-.288c-1.533-.123-3.068-.248-4.607-.3-3.382-.112-6.767-.136-10.147-.284a31.021,31.021,0,0,1-4.121-.554c-1.333-.238-2.632-.668-3.97-.856a7.379,7.379,0,0,1-3.138-1.41,1.647,1.647,0,0,1-.55-1.493,2.018,2.018,0,0,1,.378.11,15.293,15.293,0,0,0,4.39,1.225,37.279,37.279,0,0,0,4.26.492c1.146.112,2.3.174,3.442.29,1.48.149,2.954.332,4.433.48.123.013.264-.127.466-.229-.171-.116-.246-.211-.334-.22-.587-.066-1.177-.1-1.764-.172-1.419-.174-2.843-.338-4.255-.556-2-.306-3.991-.647-5.982-1a10.753,10.753,0,0,1-3.886-1.141C242.813,417.579,242.42,417.425,242.578,416.88Z" transform="translate(0 0)" fill="#1a1818"/>
        <path id="패스_91" data-name="패스 91" d="M237.2,383.83l.01.009h-.01Z" transform="translate(59.11 42.389)" fill="#1a1818"/>
        <path id="패스_92" data-name="패스 92" d="M227.571,375.923a2.782,2.782,0,0,1-.609.116,42.183,42.183,0,0,0-6.547-.013,14.7,14.7,0,0,1-5.947-.62c-.407-.121-.492-.312-.382-.71.493.042.974.073,1.453.123,1.275.13,2.546.33,3.822.383,1.408.059,2.828-.092,4.233-.009,1.326.077,2.641.337,3.961.519Z" transform="translate(39.795 34.772)" fill="#1a1818"/>
        <path id="패스_93" data-name="패스 93" d="M216.221,374.282c-.158-.02-.288-.227-.431-.347l.152-.26q4.091.2,8.181.4l.033.314a6.723,6.723,0,0,1-.849.128c-1.394.031-2.789.086-4.183.051A28.15,28.15,0,0,1,216.221,374.282Z" transform="translate(41.252 33.92)" fill="#1a1818"/>
        <path id="패스_94" data-name="패스 94" d="M219.851,368.446a4.257,4.257,0,0,1-3.169-.187c.363.035.724.082,1.089.1a10.778,10.778,0,0,0,1.088.02c.33-.015.658-.073.987-.112Z" transform="translate(41.996 29.404)" fill="#1a1818"/>
        <path id="패스_95" data-name="패스 95" d="M235.09,355.945l2.43-.119A2.352,2.352,0,0,1,235.09,355.945Z" transform="translate(57.347 19.035)" fill="#1a1818"/>
        <path id="패스_96" data-name="패스 96" d="M217.011,360.8l1.957.176-.028.2-1.949-.139Z" transform="translate(42.254 23.184)" fill="#1a1818"/>
        <path id="패스_97" data-name="패스 97" d="M235.367,374.878l0-.138,1.295.02-.018.136Z" transform="translate(57.578 34.808)" fill="#1a1818"/>
        <path id="패스_98" data-name="패스 98" d="M207.6,377.546c.226-.02.49-.121.671-.046.679.277,1.309.668,2,.91a25.866,25.866,0,0,0,2.995.858c1.243.27,2.511.455,3.772.647.858.13,1.724.222,2.588.308a14.08,14.08,0,0,0,2.993.229,36.682,36.682,0,0,1,6.406-.22,15.95,15.95,0,0,1,1.75.288l-.055.218q-3.177.184-6.358.369a24.037,24.037,0,0,1-2.855.119c-1.757-.114-3.51-.3-5.254-.53a36.378,36.378,0,0,1-4.847-.82,18.9,18.9,0,0,1-3.488-1.579C207.719,378.2,207.7,377.8,207.6,377.546Z" transform="translate(34.419 37.088)" fill="#1a1818"/>
        <path id="패스_99" data-name="패스 99" d="M215.721,377.174c-.655-.1-1.3-.257-1.955-.336-.864-.1-1.74-.121-2.6-.248-.218-.031-.389-.336-.581-.515.233-.083.486-.268.7-.235,1.152.169,2.3.376,3.437.605.574.114,1.132.3,1.7.451l-.022.24A3.248,3.248,0,0,1,215.721,377.174Z" transform="translate(36.913 35.723)" fill="#1a1818"/>
        <path id="패스_100" data-name="패스 100" d="M220.217,386.289l.068-.2,1.234.37-.068.2Z" transform="translate(44.944 44.273)" fill="#1a1818"/>
        <path id="패스_101" data-name="패스 101" d="M237.209,383.832v.007H237.2Z" transform="translate(59.103 42.391)" fill="#1a1818"/>
        <path id="패스_102" data-name="패스 102" d="M236.442,383.913l1.383-.077C237.32,384.219,236.7,384.247,236.442,383.913Z" transform="translate(58.475 42.394)" fill="#1a1818"/>
        <path id="패스_103" data-name="패스 103" d="M220.406,387.666l-1.416.244.06-.343q.674.011,1.348.02Z" transform="translate(43.921 45.505)" fill="#1a1818"/>
        <path id="패스_104" data-name="패스 104" d="M219.034,387.575h-.016l-.007,0,.027-.016Z" transform="translate(43.938 45.497)" fill="#1a1818"/>
        <path id="패스_105" data-name="패스 105" d="M237.913,342.786a4.442,4.442,0,0,1-3.272,1.63,13.429,13.429,0,0,0-2.173.191,18.924,18.924,0,0,1-4.319.185c-.946-.046-1.891-.1-2.835-.165a.991.991,0,0,1-.6-.165,5.251,5.251,0,0,1-.552-.891,3.873,3.873,0,0,1,.834-.194c.569-.011,1.144.094,1.711.053a16.863,16.863,0,0,0,1.722-.306c.9-.158,1.814-.284,2.711-.473a.983.983,0,0,0,.658-.433,1.649,1.649,0,0,0-.765-1.772,7.862,7.862,0,0,0-1.676-.572c-.869-.185-1.764-.262-2.637-.429a27.545,27.545,0,0,0-7.1-.156,9.836,9.836,0,0,0-1.5.279c-.536.123-.669-.24-.7-.565-.015-.154.251-.392.447-.488a4.108,4.108,0,0,1,.913-.246c1.058-.229,2.107-.525,3.18-.66,1.408-.176,2.832-.266,4.253-.312,1.335-.044,2.676-.031,4.009.048,1.007.06,2,.268,3.006.407l.011-.075a8.438,8.438,0,0,1,1.772.226,22.693,22.693,0,0,1,2.461,1.122,2.564,2.564,0,0,1,1.166,2.885A3.722,3.722,0,0,1,237.913,342.786Z" transform="translate(42.611 3.563)" fill="#1a1818"/>
        <path id="패스_106" data-name="패스 106" d="M243.709,348.735c-.853.238-1.748.339-2.624.5-.5.094-.988.229-1.491.282-1.126.121-2.263.171-3.387.31-1.155.145-2.3.385-3.448.543-.587.083-1.188.077-1.783.112l-.022-.161c.257-.073.512-.163.774-.216.605-.127,1.225-.2,1.817-.359.726-.2,1.421-.49,2.146-.688.376-.1.792-.066,1.183-.136.748-.134,1.482-.356,2.236-.435a9.532,9.532,0,0,0,2.63-.488,4.582,4.582,0,0,1,1.306-.084,11.6,11.6,0,0,0,1.462-.653,27.326,27.326,0,0,0,3.329-2.175,2.476,2.476,0,0,0,.413-3.681c-.389-.477-1.062-.757-1.436-1.242a7.516,7.516,0,0,0-3.184-2.153,32.523,32.523,0,0,0-4.922-1.478c-1.374-.334-2.791-.517-4.2-.739-.669-.106-1.355-.123-2.025-.226a3.134,3.134,0,0,1-.732-.323l.086-.264c.8.011,1.6-.02,2.388.049.631.057,1.247.273,1.878.356.976.125,1.971.138,2.934.31.979.174,1.931.477,2.892.732,1.388.37,2.76.811,4.165,1.109,1.913.405,3.024,1.7,4.2,2.989a3.347,3.347,0,0,1,.759,2.613.725.725,0,0,1-.431.51c-.33.108-.614.106-.675.563a2.224,2.224,0,0,1-.561.977,9.437,9.437,0,0,1-3.362,2.645A15.77,15.77,0,0,1,243.709,348.735Z" transform="translate(53.898 1.654)" fill="#1a1818"/>
        <path id="패스_107" data-name="패스 107" d="M225.166,336.086c-1.46.07-2.921.141-4.374.271-.668.06-1.315.29-1.979.4-2.476.4-4.964.737-7.427,1.19a7.926,7.926,0,0,0-4.774,2.28c-.138.154-.48.148-.73.218,0-.253-.116-.614.02-.737a11.955,11.955,0,0,1,2.259-1.8,10.31,10.31,0,0,1,2.727-.86c1.713-.359,3.442-.653,5.174-.924.794-.125,1.614-.108,2.415-.2,1.3-.156,2.593-.354,3.89-.528a25.3,25.3,0,0,1,6.208.244c.149.016.284.148.569.306-.418.031-.636.055-.858.062C227.245,336.028,226.2,336.035,225.166,336.086Z" transform="translate(32.951 1.894)" fill="#1a1818"/>
        <path id="패스_108" data-name="패스 108" d="M217.105,338.95c.62-.255,1.047.028,1.022.816-.011-.035-.02.116.051.165.666.464,1.168,1.157,2.094,1.26a6.116,6.116,0,0,1,1.014.277c.286.086.613.147.515.546-.106.426-.468.438-.814.383a12.271,12.271,0,0,1-1.557-.319c-1.3-.38-2.734-.614-3.14-2.131a.8.8,0,0,1,.165-.631A1.7,1.7,0,0,1,217.105,338.95Z" transform="translate(41.657 4.886)" fill="#1a1818"/>
        <path id="패스_109" data-name="패스 109" d="M212.8,402.2c1.643.374,3.367.435,5.045.688a18.789,18.789,0,0,1,2.346.561c.407.116.558.4.358.739a19.124,19.124,0,0,0-2.237-.512c-1.495-.167-3.017-.165-4.5-.385-1.458-.218-2.89-.6-4.319-.956-1.753-.44-3.05-1.61-4.484-2.551a.52.52,0,0,1-.086-.523c.061-.1.354-.123.537-.112.134.009.26.13.387.205a14.628,14.628,0,0,0,2.144,1.258A34.427,34.427,0,0,0,212.8,402.2Z" transform="translate(32.155 55.159)" fill="#1a1818"/>
        <path id="패스_110" data-name="패스 110" d="M218.326,402.088l0,.145a5.093,5.093,0,0,1-1.06-.026c-1.636-.385-3.275-.77-4.889-1.229-1.128-.321-2.19-.891-3.334-1.108a12.234,12.234,0,0,1-2.52-.922c-.391-.165-.752-.385-.647-1,2.217.464,4.115,1.61,6.219,2.226C214.179,400.79,216.248,401.45,218.326,402.088Z" transform="translate(32.967 54.165)" fill="#1a1818"/>
        <path id="패스_111" data-name="패스 111" d="M215.18,399.952c-.9-.26-1.8-.521-2.681-.809-1.493-.486-2.982-.977-4.456-1.507-.249-.088-.416-.372-.721-.662.633-.136,8.121,2.6,8.632,3.068A2.715,2.715,0,0,1,215.18,399.952Z" transform="translate(34.191 53.345)" fill="#1a1818"/>
        <path id="패스_112" data-name="패스 112" d="M210.711,348.058c.838.374,1.64.825,2.5,1.135a27.335,27.335,0,0,0,2.925.829q2.7.649,5.419,1.232c1.942.414,3.893.792,5.843,1.174a21.138,21.138,0,0,0,2.689.462c1.023.062,2.061-.086,3.09-.062,1.445.035,2.89.108,4.328.244a3.468,3.468,0,0,1,1.253.55.518.518,0,0,1,.145.457c-.011.075-.26.161-.4.163-1.643.026-3.288.084-4.928.031-1.478-.048-2.953-.2-4.423-.35-1.2-.121-2.4-.281-3.6-.464-1.154-.18-2.3-.405-3.444-.624-.974-.183-1.937-.431-2.916-.563a10.862,10.862,0,0,0-2-.026c-.49.026-.636-.194-.671-.609.161-.106.328-.215.5-.33-.288-.6-.888-.477-1.372-.616-1.21-.347-2.413-.723-3.609-1.119-.457-.152-.884-.389-1.326-.583a3.674,3.674,0,0,0-1.1-.451c-.638-.044-.713-.435-.893-.851C209.577,347.289,210.118,347.793,210.711,348.058Z" transform="translate(35.356 12.125)" fill="#1a1818"/>
      </g>
      <g id="그룹_49" data-name="그룹 49" transform="translate(487.696 1678.961)">
        <path id="패스_113" data-name="패스 113" d="M381.038,386.488c.652-1.137,1.835-3.272,3.088-5.362.7-1.163,1.551-2.228,2.272-3.379,1.246-1.987,2.41-4.031,3.672-6.009,1.555-2.438,3.164-4.839,4.77-7.243q2.558-3.838,5.163-7.643c.887-1.294,1.863-2.531,2.762-3.818,1.008-1.444,1.964-2.923,2.963-4.375a21.391,21.391,0,0,1,4.2-4.777,13.186,13.186,0,0,1,2.154-1.4,3.384,3.384,0,0,1,5.054,2.468,3.672,3.672,0,0,1-.559,3.453,1.676,1.676,0,0,0-.423.841c-.162,1.246-1.024,2.061-1.689,3.021-1.209,1.74-2.3,3.564-3.478,5.327-1.054,1.579-2.168,3.118-3.249,4.68q-2.891,4.177-5.773,8.364c-.971,1.407-1.909,2.838-2.914,4.222a38.72,38.72,0,0,0-1.99,3.358c-1.844,3.164-3.8,6.263-5.778,9.348-1.6,2.505-3.314,4.943-4.939,7.435-.984,1.514-1.886,3.081-2.843,4.613-.716,1.146-1.456,2.279-2.2,3.411-.638.975-1.3,1.939-1.941,2.912-.844,1.278-1.715,2.542-2.51,3.85a58.527,58.527,0,0,1-3.82,5.891c-1.472,1.876-2.593,4.03-3.883,6.053-1.165,1.826-2.367,3.631-3.524,5.463-1.276,2.024-2.48,4.1-3.79,6.1-1.112,1.7-2.334,3.333-3.5,5q-1.089,1.556-2.152,3.129c-1.518,2.244-3.048,4.481-4.541,6.741a59.1,59.1,0,0,0-3.827,6.078,41.738,41.738,0,0,1-2.958,4.169c-.931,1.424-2.237,2.639-2.979,4.144a21.447,21.447,0,0,1-3.7,4.879c-1.4,1.537-2.838,3.037-4.252,4.56-.46.495-.874,1.035-1.354,1.509-.83.813-1.676,1.613-2.554,2.376a.884.884,0,0,1-1.241.025c-.409-.37-.116-.728.049-1.1.92-2.064,1.814-4.137,2.736-6.2.83-1.853,1.7-3.688,2.521-5.547.328-.742.545-1.53.844-2.283,1.3-3.268,3.4-6.076,5.2-9.055,1.937-3.21,4-6.344,6-9.517.552-.878,1.056-1.789,1.611-2.665q2.572-4.07,5.168-8.128c2.408-3.769,4.849-7.52,7.227-11.308,1.539-2.454,3-4.957,4.477-7.449a9.828,9.828,0,0,0,.388-.994,20.726,20.726,0,0,1,1.34-2.794c2.348-3.543,4.8-7.014,7.146-10.562C375.836,394.713,378.112,391.064,381.038,386.488Zm30.83-36.353.356.231c.811-1.327,1.7-2.616,2.392-4a2.492,2.492,0,0,0-.1-1.812,1.4,1.4,0,0,0-2.068-.869,9.311,9.311,0,0,0-2.859,2.011c-2.563,2.732-4.287,6.041-6.369,9.1-.938,1.382-1.872,2.771-2.852,4.123-.633.878-1.417,1.65-2.013,2.551-2.015,3.037-3.982,6.1-5.951,9.173-1.682,2.623-3.342,5.262-5.01,7.895-2.565,4.047-5.154,8.082-7.682,12.152-.753,1.211-1.294,2.551-2.02,3.783-1.285,2.182-2.646,4.319-3.957,6.485-1.121,1.849-2.138,3.767-3.349,5.554-1.132,1.675-2.565,3.134-3.571,4.918-.772,1.37-1.715,2.644-2.551,3.98-1.722,2.755-3.406,5.533-5.14,8.281-2.632,4.172-5.322,8.306-7.929,12.491-2.2,3.527-4.183,7.183-6.594,10.578-.675.954-1.357,1.909-1.951,2.914-1.031,1.745-1.884,3.6-3.018,5.274a44.163,44.163,0,0,0-2.339,3.926c-.566,1.045-1.047,2.138-1.606,3.3l1.784-.125a6.085,6.085,0,0,1-.312,1.026c-.582,1.072-1.188,2.133-1.8,3.192a2.005,2.005,0,0,0-.444,1.47c.307-.386.513-.622.7-.871,2.172-2.944,4.3-5.921,6.522-8.824a63.9,63.9,0,0,0,5.891-9.434,21.014,21.014,0,0,1,2.706-4.044,25.884,25.884,0,0,0,2.182-3.1c1.447-2.293,2.792-4.652,4.285-6.91,1.246-1.886,2.706-3.626,3.961-5.5,2.235-3.349,4.4-6.744,6.563-10.139,1.749-2.745,3.45-5.521,5.188-8.274,1.541-2.438,3.122-4.853,4.655-7.3.742-1.186,1.384-2.436,2.117-3.628,1.994-3.236,4.021-6.45,6.016-9.683a42.371,42.371,0,0,1,3.716-5.486,19.612,19.612,0,0,0,1.56-1.872c1.609-2.459,3.171-4.95,4.745-7.43,1.139-1.8,2.233-3.619,3.421-5.38,1.241-1.84,2.611-3.589,3.85-5.426,1.819-2.7,3.587-5.436,5.348-8.174.957-1.488,1.851-3.014,2.773-4.523a5.189,5.189,0,0,0-1.158,1.336c-1.3,2.024-2.66,1.276-3.924.231a.915.915,0,0,1-.092-1.426c1.327-1.7,2.586-3.453,3.922-5.147a9.777,9.777,0,0,1,1.491-1.368,1.054,1.054,0,0,1,1.371-.189,2.05,2.05,0,0,1,.691,1.345,5.01,5.01,0,0,1-.522,1.921A14.95,14.95,0,0,1,411.867,350.135Zm.326-2.949-.356-.3c-1.717,1.405-2.648,3.4-3.9,5.191.777.409,1.1,0,1.394-.4.529-.728,1.052-1.461,1.535-2.219C411.336,348.72,411.752,347.946,412.193,347.186ZM332.577,470.167l1.394-1.424C333.021,469.063,333.021,469.063,332.577,470.167Z" transform="translate(0 0)" fill="#1a1818"/>
        <path id="패스_114" data-name="패스 114" d="M384.258,350.865c-.03.231.014.518-.106.686-1.024,1.433-2.154,2.8-3.106,4.28-1.024,1.592-1.888,3.289-2.833,4.934-.4.7-.832,1.394-1.262,2.085-.545.883-1.079,1.77-1.659,2.63-.8,1.193-1.659,2.348-2.459,3.541q-1.088,1.626-2.1,3.3c-1.477,2.434-2.926,4.881-4.4,7.317a9.765,9.765,0,0,1-.839,1.229,53.373,53.373,0,0,0-4.742,7.2c-1.195,2.013-2.616,3.89-3.915,5.842-.622.936-1.176,1.916-1.789,2.859-1.278,1.967-2.584,3.913-3.853,5.884-.659,1.024-1.255,2.087-1.89,3.127q-.742,1.206-1.514,2.394c-.934,1.438-1.847,2.893-2.836,4.3-.643.915-1.4,1.75-2.11,2.619l-.257-.141a12.8,12.8,0,0,1,.605-1.176c1.68-2.623,3.36-5.248,5.071-7.851,1.091-1.659,2.256-3.268,3.344-4.927,1.338-2.041,2.63-4.112,3.95-6.166.437-.684.913-1.343,1.338-2.034,1.773-2.889,3.524-5.792,5.309-8.676.545-.883,1.2-1.7,1.745-2.582,1.213-1.957,2.355-3.964,3.6-5.9,2.071-3.233,4.232-6.406,6.284-9.651,1.28-2.024,2.452-4.121,3.638-6.205a50.544,50.544,0,0,1,5.588-8.32,6.17,6.17,0,0,1,.971-.758Z" transform="translate(18.395 11.35)" fill="#1a1818"/>
        <path id="패스_115" data-name="패스 115" d="M362.466,350.658c1.005-.52,1.629-1.722,3.212-1.521a4.688,4.688,0,0,1-.52,1.019c-.518.564-1.112,1.056-1.636,1.613-1.23,1.3-1.5,1.343-3.152.361a13.065,13.065,0,0,1,1.6-4.236,1.122,1.122,0,0,1,.342-.416c.173-.109.476-.259.58-.185.183.129.4.444.354.624C363.042,348.814,362.753,349.692,362.466,350.658Z" transform="translate(41.708 6.863)" fill="#1a1818"/>
      </g>
      <path id="패스_116" data-name="패스 116" d="M459.226,343.12h23.16c31.145,0,46.8,8.946,46.8,26.995,0,7.347-2.713,13.415-8.145,17.888-5.27,4.471-13.417,7.507-24.117,9.1,12.935.957,22.52,4.152,28.909,9.582a26.7,26.7,0,0,1,9.424,20.605,29.414,29.414,0,0,1-6.389,18.687,29.739,29.739,0,0,1-16.451,9.9c-6.708,1.6-15.492,2.235-26.674,2.235H459.226Zm16.451,52.39h4.312c12.139,0,20.284-1.916,24.757-5.751s6.548-9.9,6.548-18.526c0-5.91-.8-10.543-2.557-13.736a17.759,17.759,0,0,0-7.826-7.507c-3.514-1.916-9.263-2.715-17.727-2.715-2.237,0-5.591,0-7.507.158Zm0,57.818h14.535c8.944,0,15.653-1.278,20.126-5.749,4.471-4.634,6.706-11.5,6.706-20.764,0-9.424-2.555-16.293-7.505-20.764-5.113-4.473-13.9-6.708-26.676-6.708-2.075,0-5.27.161-7.186.161Z" transform="translate(621.028 1686.88)" fill="#1a1818"/>
    </g>
  </g>
</svg>
